<svg width="610" height="570" viewBox="0 0 610 570" fill="none" xmlns="http://www.w3.org/2000/svg">
<path d="M341.665 103.189H140.149C128.357 103.189 117.453 109.453 111.512 119.639L4.88771 302.459C-1.20987 312.914 -1.12515 325.861 5.10873 336.236L111.446 513.201C117.44 523.175 128.225 529.277 139.862 529.277H341.952C353.589 529.277 364.374 523.175 370.368 513.201L476.705 336.236C482.939 325.861 483.024 312.914 476.926 302.459L370.301 119.639C364.361 109.453 353.456 103.189 341.665 103.189Z" fill="#8C73FF"/>
<path d="M543.317 8H449.269C443.393 8 437.959 11.123 435 16.2006L385.206 101.668C382.173 106.873 382.215 113.316 385.316 118.48L434.967 201.195C437.952 206.168 443.326 209.21 449.126 209.21H543.46C549.259 209.21 554.634 206.168 557.619 201.195L607.27 118.48C610.37 113.316 610.413 106.873 607.38 101.668L557.585 16.2006C554.627 11.123 549.193 8 543.317 8Z" fill="#FF9B3E"/>
<path d="M49.6196 470.725C49.3155 447.812 59.5726 427.535 79.1227 391.473C79.3744 391.009 79.5555 390.499 79.6505 389.98L86.1332 354.501C86.396 353.063 85.0849 351.883 83.7754 352.534C54.0233 367.316 3.98006 488.966 28.2517 498.811C26.7172 507.209 31.0868 511.35 34.7346 512.236C35.509 512.424 36.3194 512.256 37.0098 511.858C42.0951 508.926 45.1899 502.446 46.4471 492.646C46.6487 491.074 48.4915 490.25 49.8224 491.11C54.1927 493.934 57.5128 494.83 60.8023 494.933C63.0341 495.004 64.9381 493.249 64.9013 491.016C64.767 482.862 58.4962 478.975 51.8065 474.634C50.4747 473.77 49.6407 472.312 49.6196 470.725Z" fill="#FDDB5F"/>
<mask id="mask0_1381_52915" style="mask-type:alpha" maskUnits="userSpaceOnUse" x="21" y="352" width="66" height="161">
<path d="M49.6196 470.725C49.3155 447.812 59.5726 427.535 79.1227 391.473C79.3744 391.009 79.5555 390.499 79.6505 389.98L86.1332 354.501C86.396 353.063 85.0849 351.883 83.7754 352.534C54.0233 367.316 3.98006 488.966 28.2517 498.811C26.7172 507.209 31.0868 511.35 34.7346 512.236C35.509 512.424 36.3194 512.256 37.0098 511.858C42.0951 508.926 45.1899 502.446 46.4471 492.646C46.6487 491.074 48.4915 490.25 49.8224 491.11C54.1927 493.934 57.5128 494.83 60.8023 494.933C63.0341 495.004 64.9381 493.249 64.9013 491.016C64.767 482.862 58.4962 478.975 51.8065 474.634C50.4747 473.77 49.6407 472.312 49.6196 470.725Z" fill="#FDDB5F"/>
</mask>
<g mask="url(#mask0_1381_52915)">
<ellipse cx="98.0478" cy="382.461" rx="36.5" ry="39.5" transform="rotate(10.3549 98.0478 382.461)" fill="#DBAB3B"/>
</g>
<path d="M304.446 501.8C314.423 481.172 313.717 458.459 311.276 417.511C311.244 416.984 311.296 416.446 311.43 415.935L320.58 381.049C320.951 379.634 322.638 379.121 323.549 380.265C344.243 406.254 338.068 537.651 311.911 536.292C309.745 544.55 304.033 546.451 300.353 545.709C299.572 545.552 298.909 545.056 298.452 544.403C295.086 539.594 295.027 532.413 298.038 523.002C298.52 521.493 297.2 519.966 295.63 520.182C290.475 520.89 287.088 520.296 284.064 518.996C282.013 518.115 281.031 515.719 282.009 513.712C285.584 506.382 292.911 505.515 300.809 504.416C302.381 504.197 303.754 503.229 304.446 501.8Z" fill="#FDDB5F"/>
<mask id="mask1_1381_52915" style="mask-type:alpha" maskUnits="userSpaceOnUse" x="281" y="379" width="55" height="167">
<path d="M304.446 501.8C314.423 481.172 313.717 458.459 311.276 417.511C311.244 416.984 311.296 416.446 311.43 415.935L320.58 381.049C320.951 379.634 322.638 379.121 323.549 380.265C344.243 406.254 338.068 537.651 311.911 536.292C309.745 544.55 304.033 546.451 300.353 545.709C299.572 545.552 298.909 545.056 298.452 544.403C295.086 539.594 295.027 532.413 298.038 523.002C298.52 521.493 297.2 519.966 295.63 520.182C290.475 520.89 287.088 520.296 284.064 518.996C282.013 518.115 281.031 515.719 282.009 513.712C285.584 506.382 292.911 505.515 300.809 504.416C302.381 504.197 303.754 503.229 304.446 501.8Z" fill="#FDDB5F"/>
</mask>
<g mask="url(#mask1_1381_52915)">
<ellipse cx="36.5" cy="39.5" rx="36.5" ry="39.5" transform="matrix(-0.967283 -0.253699 -0.253699 0.967283 343.273 372.387)" fill="#DBAB3B"/>
</g>
<path d="M357.419 365.827L369.951 316.271C370.569 313.826 372.911 312.224 375.413 312.534L382.256 313.383C384.434 313.653 386.181 315.31 386.564 317.47L395.885 369.954C396.419 372.959 394.159 375.737 391.109 375.827L386.749 375.954C385.172 376.001 383.925 374.631 384.119 373.065L370.722 371.404C370.527 372.978 368.987 374.018 367.454 373.609L360.979 371.884C358.335 371.18 356.748 368.48 357.419 365.827Z" fill="#FDDB5F"/>
<mask id="mask2_1381_52915" style="mask-type:alpha" maskUnits="userSpaceOnUse" x="357" y="312" width="39" height="64">
<path d="M357.419 365.827L369.951 316.271C370.569 313.826 372.911 312.224 375.413 312.534L382.256 313.383C384.434 313.652 386.181 315.31 386.564 317.47L395.885 369.954C396.419 372.959 394.159 375.737 391.109 375.826L386.749 375.954C385.172 376.001 383.925 374.63 384.119 373.065L370.722 371.404C370.527 372.978 368.987 374.017 367.454 373.609L360.979 371.884C358.335 371.179 356.748 368.48 357.419 365.827Z" fill="#FDDB5F"/>
</mask>
<g mask="url(#mask2_1381_52915)">
<path d="M368.961 377.254L375.304 320.723" stroke="#DBAB3B" stroke-width="5" stroke-linecap="round"/>
<path d="M385.332 374.811L381.625 320.513" stroke="#DBAB3B" stroke-width="5" stroke-linecap="round"/>
</g>
<path d="M361.379 239.5L373.408 237.823C380.157 262.108 381.676 276.321 382.38 302.201L370.351 303.877C370.296 279.826 368.825 265.834 361.379 239.5Z" fill="#FDDB5F"/>
<ellipse cx="377.729" cy="310.806" rx="12" ry="11.5" transform="rotate(-11.9395 377.729 310.806)" fill="#FDDB5F"/>
<mask id="mask3_1381_52915" style="mask-type:alpha" maskUnits="userSpaceOnUse" x="365" y="299" width="25" height="24">
<ellipse cx="377.729" cy="310.806" rx="12" ry="11.5" transform="rotate(-11.9395 377.729 310.806)" fill="#FDDB5F"/>
</mask>
<g mask="url(#mask3_1381_52915)">
<path d="M388.574 305.885C389.969 307.087 394.391 321.773 379.529 324.063C366.735 325.052 365.989 313.289 365.989 313.289C365.989 313.289 372.615 319.061 379.934 317.427C387.254 315.792 388.574 305.885 388.574 305.885Z" fill="#DBAB3B"/>
</g>
<path d="M97.4579 162.404C93.9347 159.895 95.0429 154.399 99.263 153.452L269.448 115.253C271.159 114.869 272.947 115.41 274.158 116.678L392.735 240.807C395.697 243.908 393.637 249.055 389.353 249.256L231.65 256.645C230.532 256.697 229.428 256.373 228.516 255.723L97.4579 162.404Z" fill="#1D1D1B"/>
<path d="M145.371 183.396C201.507 154.157 309.929 184.242 343.34 242.138L315.969 265.831L153.951 217.756L145.371 183.396Z" fill="black"/>
<rect x="307.293" y="204.687" width="9" height="49" transform="rotate(30 307.293 204.687)" fill="#1D1D1B"/>
<circle cx="314.941" cy="200.441" r="13.5" transform="rotate(30 314.941 200.441)" fill="#FDDB5F"/>
<rect width="9" height="49" transform="matrix(-0.866025 0.5 0.5 0.866025 134.59 190.687)" fill="#1D1D1B"/>
<circle cx="13.5" cy="13.5" r="13.5" transform="matrix(-0.866025 0.5 0.5 0.866025 131.883 168)" fill="#FDDB5F"/>
<ellipse cx="135" cy="134.5" rx="135" ry="134.5" transform="matrix(-1 0 0 1 344.5 205)" fill="#FDDB5F"/>
<mask id="mask4_1381_52915" style="mask-type:alpha" maskUnits="userSpaceOnUse" x="96" y="287" width="250" height="201">
<path d="M96 411.5C96 485.782 137.218 488 211.5 488C285.782 488 346 427.782 346 353.5C346 328.484 338.5 287.5 338.5 287.5C355 426.5 196 514 96 411.5Z" fill="#DBAB3B"/>
</mask>
<g mask="url(#mask4_1381_52915)">
<ellipse cx="135" cy="134.5" rx="135" ry="134.5" transform="matrix(-1 0 0 1 344.5 205)" fill="#DBAB3B"/>
</g>
<circle cx="29" cy="29" r="26.5" transform="matrix(-0.98788 -0.155221 -0.155221 0.98788 185.691 292.869)" fill="white" stroke="#1D1D1B" stroke-width="5"/>
<mask id="mask5_1381_52915" style="mask-type:alpha" maskUnits="userSpaceOnUse" x="123" y="288" width="59" height="59">
<circle cx="29" cy="29" r="26.5" transform="matrix(-0.98788 -0.155221 -0.155221 0.98788 185.691 292.869)" fill="white" stroke="#1D1D1B" stroke-width="5"/>
</mask>
<g mask="url(#mask5_1381_52915)">
<circle cx="29" cy="29" r="26.5" transform="matrix(-0.98788 -0.155221 -0.155221 0.98788 204.461 295.818)" fill="#1D1D1B" stroke="#1D1D1B" stroke-width="5"/>
</g>
<circle cx="249.354" cy="332.228" r="26.5" transform="rotate(8.92959 249.354 332.228)" fill="white" stroke="#1D1D1B" stroke-width="5"/>
<mask id="mask6_1381_52915" style="mask-type:alpha" maskUnits="userSpaceOnUse" x="220" y="303" width="59" height="59">
<circle cx="249.354" cy="332.228" r="26.5" transform="rotate(8.92959 249.354 332.228)" fill="white" stroke="#1D1D1B" stroke-width="5"/>
</mask>
<g mask="url(#mask6_1381_52915)">
<circle cx="230.585" cy="329.278" r="26.5" transform="rotate(8.92959 230.585 329.278)" fill="#1D1D1B" stroke="#1D1D1B" stroke-width="5"/>
</g>
<path d="M209.042 390.018C206.042 384.018 198.931 376.506 189.097 375.087C179.263 373.668 171.042 377.518 166.042 383.518" stroke="#1D1D1B" stroke-width="5" stroke-linecap="round"/>
<mask id="mask7_1381_52915" style="mask-type:alpha" maskUnits="userSpaceOnUse" x="74" y="205" width="271" height="269">
<ellipse cx="135" cy="134.5" rx="135" ry="134.5" transform="matrix(-1 0 0 1 344.5 205)" fill="#FDDB5F"/>
</mask>
<g mask="url(#mask7_1381_52915)">
<path d="M349.664 376.709C235.499 440 116.363 396.082 72.4995 348.5L78.4995 383.5C109.499 429.5 275.999 466 330.999 405L349.664 376.709Z" fill="#1D1D1B"/>
<path d="M293.081 444.971C233.02 465.071 137.613 444.864 92.4385 408.868L48.3082 435.133C100.735 475.215 251.067 506.825 326.835 485.25L293.081 444.971Z" fill="#1D1D1B"/>
</g>
<path d="M173.636 427.576C173.713 426.816 173.986 426.09 174.428 425.469L180.997 416.252C182.966 413.489 187.192 413.913 188.573 417.012L193.179 427.35C193.489 428.047 193.613 428.813 193.536 429.572L190.775 457.095C190.679 458.046 190.276 458.94 189.625 459.641L183.298 466.456C181.321 468.585 177.857 468.238 176.342 465.758L171.495 457.821C170.997 457.006 170.779 456.049 170.875 455.098L173.636 427.576Z" fill="#B6A7FC"/>
<mask id="mask8_1381_52915" style="mask-type:alpha" maskUnits="userSpaceOnUse" x="170" y="414" width="24" height="54">
<path d="M173.636 427.576C173.713 426.816 173.986 426.09 174.428 425.469L180.997 416.252C182.966 413.489 187.192 413.913 188.573 417.012L193.179 427.35C193.489 428.047 193.613 428.813 193.536 429.572L190.775 457.095C190.679 458.046 190.276 458.94 189.625 459.641L183.298 466.456C181.321 468.585 177.857 468.238 176.342 465.758L171.495 457.821C170.997 457.006 170.779 456.049 170.875 455.098L173.636 427.576Z" fill="#B6A7FC"/>
</mask>
<g mask="url(#mask8_1381_52915)">
<path d="M180.507 427.516C182.043 429.433 184.854 429.715 186.74 428.141L194.732 421.469C197.714 418.979 196.225 414.128 192.36 413.74L177.861 412.285C173.996 411.898 171.572 416.356 174 419.389L180.507 427.516Z" fill="#8775DC"/>
</g>
<path d="M181.047 422.544C182.582 424.462 185.393 424.744 187.279 423.17L195.271 416.498C198.253 414.008 196.764 409.157 192.899 408.769L178.4 407.314C174.535 406.926 172.111 411.385 174.539 414.417L181.047 422.544Z" fill="#B6A7FC"/>
<path d="M118.78 275.314C140.792 269.528 175.898 284.259 189.688 304.166C199.437 318.24 171.829 361.231 165.826 362.809C149.818 367.017 109.325 353.499 103.85 343.845C88.7466 317.212 104.298 279.121 118.78 275.314Z" stroke="#1D1D1B" stroke-width="9.93119"/>
<path d="M298.745 348.543C287.027 329.032 251.609 315.067 227.838 319.69C211.032 322.959 200.78 373.012 203.976 378.333C212.498 392.522 250.925 411.117 261.585 408.029C290.993 399.507 306.455 361.38 298.745 348.543Z" stroke="#1D1D1B" stroke-width="9.93119"/>
<path d="M187.025 328.134C195.65 329.784 205.221 333.679 211.484 338.087" stroke="#1D1D1B" stroke-width="10.3329"/>
<ellipse cx="239.024" cy="317.445" rx="6" ry="7" transform="rotate(8.92959 239.024 317.445)" fill="white"/>
<ellipse cx="167.895" cy="306.269" rx="6" ry="7" transform="rotate(8.92959 167.895 306.269)" fill="white"/>
<path d="M78.0756 471.931L124.758 423.303C133.876 420.682 143.701 423.137 150.514 429.74L169.379 448.025C170.82 449.421 170.838 451.727 169.419 453.146L162.011 460.554C160.276 462.289 157.537 462.508 155.547 461.071L136 446.946L68.3671 517.148C66.4466 519.141 63.2718 519.195 61.2849 517.267L8.06945 465.644C6.44339 464.066 6.06651 461.569 7.29532 459.665C21.9562 436.958 45.2032 436.835 70.1922 471.288C72.07 473.877 75.8607 474.239 78.0756 471.931Z" fill="#1D1D1B"/>
<path d="M193.702 498.471L224.955 441.869L235.625 435.468C237.161 434.546 239.072 434.517 240.636 435.39L262.809 447.779C265.401 449.227 266.167 452.602 264.455 455.027L262.902 457.228C262.108 458.352 260.888 459.099 259.526 459.294L241.907 461.82L193.757 548.659C192.81 550.366 190.957 551.376 189.015 551.175C156.811 547.833 121.9 530.347 119.755 510.961C115.853 475.699 162.602 474.447 184.169 499.018C186.755 501.964 191.808 501.902 193.702 498.471Z" fill="#1D1D1B"/>
<mask id="mask9_1381_52915" style="mask-type:alpha" maskUnits="userSpaceOnUse" x="119" y="434" width="147" height="118">
<path d="M193.702 498.471L224.955 441.869L235.625 435.468C237.161 434.546 239.072 434.517 240.636 435.39L262.809 447.779C265.401 449.227 266.167 452.602 264.455 455.027L262.902 457.228C262.108 458.352 260.888 459.099 259.526 459.294L241.907 461.82L193.757 548.659C192.81 550.366 190.957 551.376 189.015 551.175C156.811 547.833 121.9 530.347 119.755 510.961C115.853 475.699 162.602 474.447 184.169 499.018C186.755 501.964 191.808 501.902 193.702 498.471Z" fill="#1D1D1B"/>
</mask>
<g mask="url(#mask9_1381_52915)">
<ellipse cx="154.374" cy="526.279" rx="44.1817" ry="24.9255" transform="rotate(42.6967 154.374 526.279)" fill="#373737"/>
</g>
</svg>
