<svg width="299" height="355" viewBox="0 0 299 355" fill="none" xmlns="http://www.w3.org/2000/svg">
<path d="M39.6193 143.486C46.5922 157.172 59.0725 166.348 81.7107 182.007C82.1451 182.308 82.536 182.68 82.8555 183.1L97.0859 201.831C97.9705 202.995 97.3203 204.598 95.8617 204.495C78.0683 203.241 31.8971 170.84 15.5276 146.439C5.16664 130.994 6.05985 117.952 16.4668 117.952C20.4304 117.952 25.6441 123.202 29.8892 129.378C30.7868 130.684 32.8049 130.58 33.6682 129.251C34.9499 127.278 36.2242 126.017 37.5904 125.098C39.4433 123.852 42.0435 124.595 42.783 126.702C44.3058 131.04 42.1849 134.894 39.7889 139.021C38.9918 140.394 38.8986 142.072 39.6193 143.486Z" fill="#FDDB5F"/>
<mask id="mask0_1381_59431" style="mask-type:alpha" maskUnits="userSpaceOnUse" x="7" y="117" width="91" height="88">
<path d="M39.3938 143.131C46.3666 156.817 58.8469 165.993 81.4851 181.652C81.9195 181.952 82.3104 182.324 82.6299 182.745L96.8603 201.475C97.7449 202.639 97.0948 204.242 95.6361 204.139C77.8427 202.885 31.6715 170.484 15.3021 146.083C4.94105 130.639 5.83427 117.597 16.2412 117.597C20.2048 117.597 25.4185 122.846 29.6636 129.022C30.5612 130.328 32.5794 130.224 33.4426 128.896C34.7243 126.923 35.9986 125.662 37.3649 124.743C39.2177 123.496 41.8179 124.24 42.5574 126.347C44.0802 130.685 41.9593 134.539 39.5633 138.665C38.7662 140.038 38.673 141.716 39.3938 143.131Z" fill="#FDDB5F"/>
</mask>
<g mask="url(#mask0_1381_59431)">
<ellipse cx="25.0544" cy="27.1136" rx="25.0544" ry="27.1136" transform="matrix(0.796258 -0.604957 -0.604957 -0.796258 92.7529 218.546)" fill="#DBAB3B"/>
</g>
<path d="M258.253 264.776C260.98 249.66 256.594 234.803 248.041 208.639C247.876 208.137 247.79 207.605 247.79 207.077V183.554C247.79 182.091 249.258 181.178 250.368 182.129C268.394 197.565 286.434 283.552 269.069 287.155C269.069 292.733 265.934 295.046 263.414 295.384C262.624 295.49 261.846 295.174 261.261 294.633C258.565 292.135 257.343 287.856 257.498 281.899C257.539 280.315 255.871 279.175 254.38 279.711C252.166 280.506 250.388 280.739 248.744 280.645C246.515 280.516 244.894 278.351 245.58 276.226C246.992 271.851 251.012 270.065 255.416 268.228C256.882 267.618 257.971 266.338 258.253 264.776Z" fill="#FDDB5F"/>
<mask id="mask1_1381_59431" style="mask-type:alpha" maskUnits="userSpaceOnUse" x="245" y="181" width="32" height="115">
<path d="M258.253 264.776C260.98 249.66 256.594 234.803 248.041 208.639C247.876 208.137 247.79 207.605 247.79 207.077V183.554C247.79 182.091 249.258 181.178 250.368 182.129C268.394 197.565 286.434 283.552 269.069 287.155C269.069 292.733 265.934 295.046 263.414 295.384C262.624 295.49 261.846 295.174 261.261 294.633C258.565 292.135 257.343 287.856 257.498 281.899C257.539 280.315 255.871 279.175 254.38 279.711C252.166 280.506 250.388 280.739 248.744 280.645C246.515 280.516 244.894 278.351 245.58 276.226C246.992 271.851 251.012 270.065 255.416 268.228C256.882 267.618 257.971 266.338 258.253 264.776Z" fill="#FDDB5F"/>
</mask>
<g mask="url(#mask1_1381_59431)">
<ellipse cx="25.0544" cy="27.1136" rx="25.0544" ry="27.1136" transform="matrix(-1 0 0 1 261.351 172.866)" fill="#DBAB3B"/>
</g>
<path d="M133.727 360.582V243.076C133.727 240.315 135.966 238.076 138.727 238.076H145.544C148.306 238.076 150.544 240.315 150.544 243.076V387.864C150.544 390.626 148.306 392.864 145.544 392.864H97.4133C95.1479 392.864 93.126 391.346 92.7543 389.111C89.9098 372.01 100.848 361.513 127.632 365.644C130.782 366.13 133.727 363.769 133.727 360.582Z" fill="#1D1D1B"/>
<path d="M203.173 360.582V243.076C203.173 240.315 200.935 238.076 198.173 238.076H191.356C188.595 238.076 186.356 240.315 186.356 243.076V387.864C186.356 390.626 188.595 392.864 191.356 392.864H239.487C241.753 392.864 243.774 391.346 244.146 389.111C246.991 372.01 236.052 361.513 209.268 365.644C206.118 366.13 203.173 363.769 203.173 360.582Z" fill="#1D1D1B"/>
<path d="M270.175 158.105L268.853 125.687C268.75 123.168 270.539 120.966 273.027 120.551L275.189 120.191C277.353 119.83 279.499 120.923 280.481 122.884L296.11 154.098C297.172 156.219 296.103 158.787 293.85 159.528L291.505 160.3C290.476 160.638 289.388 159.98 289.21 158.912L280.069 160.435C280.248 161.509 279.438 162.494 278.349 162.524L275.01 162.618C272.435 162.69 270.28 160.679 270.175 158.105Z" fill="#FDDB5F"/>
<mask id="mask2_1381_59431" style="mask-type:alpha" maskUnits="userSpaceOnUse" x="268" y="120" width="29" height="43">
<path d="M270.175 158.105L268.853 125.687C268.75 123.168 270.539 120.966 273.027 120.551L275.189 120.191C277.353 119.83 279.499 120.923 280.481 122.884L296.11 154.098C297.172 156.219 296.103 158.787 293.85 159.528L291.505 160.3C290.476 160.638 289.388 159.98 289.21 158.912L280.069 160.435C280.248 161.509 279.438 162.494 278.349 162.524L275.01 162.618C272.435 162.69 270.28 160.679 270.175 158.105Z" fill="#FDDB5F"/>
</mask>
<g mask="url(#mask2_1381_59431)">
<path d="M280.053 164.628L273.189 126.188" stroke="#DBAB3B" stroke-width="5" stroke-linecap="round"/>
<path d="M290.349 159.823L277.307 124.816" stroke="#DBAB3B" stroke-width="5" stroke-linecap="round"/>
</g>
<path d="M248.164 75.458L255.752 72.006C264.935 86.669 268.71 95.7255 274.227 112.619L266.639 116.071C261.906 100.254 258.206 91.334 248.164 75.458Z" fill="#FDDB5F"/>
<ellipse cx="272.848" cy="119.189" rx="8.23705" ry="7.89384" transform="rotate(-28.4663 272.848 119.189)" fill="#FDDB5F"/>
<mask id="mask3_1381_59431" style="mask-type:alpha" maskUnits="userSpaceOnUse" x="264" y="111" width="18" height="17">
<ellipse cx="272.847" cy="119.19" rx="8.23705" ry="7.89384" transform="rotate(-28.4663 272.847 119.19)" fill="#FDDB5F"/>
</mask>
<g mask="url(#mask3_1381_59431)">
<path d="M279.023 113.833C280.176 114.352 285.954 123.153 276.621 127.562C268.394 130.711 265.607 123.116 265.607 123.116C265.607 123.116 271.094 125.62 275.592 123.116C280.089 120.611 279.023 113.833 279.023 113.833Z" fill="#DBAB3B"/>
</g>
<path d="M62.758 77.3973C58.6667 75.9945 58.1658 70.4106 61.9421 68.302L162.635 12.0789C164.166 11.2238 166.033 11.2337 167.556 12.105L266.068 68.487C269.79 70.6172 269.279 76.1372 265.23 77.5481L166.655 111.893C165.598 112.262 164.448 112.265 163.388 111.902L62.758 77.3973Z" fill="#1D1D1B"/>
<path d="M95.062 80.7165C126.294 50.5139 203.517 49.1411 236.808 80.7165L223.423 101.652H107.418L95.062 80.7165Z" fill="black"/>
<rect x="219.506" y="63.5098" width="6.17779" height="33.6346" transform="rotate(30 219.506 63.5098)" fill="#1D1D1B"/>
<circle cx="224.755" cy="60.596" r="9.26669" transform="rotate(30 224.755 60.596)" fill="#FDDB5F"/>
<rect width="6.17779" height="33.6346" transform="matrix(-0.866025 0.5 0.5 0.866025 116.402 63.5098)" fill="#1D1D1B"/>
<circle cx="9.26669" cy="9.26669" r="9.26669" transform="matrix(-0.866025 0.5 0.5 0.866025 114.544 47.9375)" fill="#FDDB5F"/>
<ellipse cx="92.6669" cy="92.3236" rx="92.6669" ry="92.3236" transform="matrix(-1 0 0 1 260.489 73.334)" fill="#FDDB5F"/>
<mask id="mask4_1381_59431" style="mask-type:alpha" maskUnits="userSpaceOnUse" x="89" y="129" width="173" height="139">
<path d="M89.9133 215.08C89.9133 266.069 118.206 267.591 169.195 267.591C220.184 267.591 261.519 226.257 261.519 175.268C261.519 158.096 256.37 129.964 256.37 129.964C267.696 225.376 158.555 285.438 89.9133 215.08Z" fill="#DBAB3B"/>
</mask>
<g mask="url(#mask4_1381_59431)">
<ellipse cx="92.6669" cy="92.3236" rx="92.6669" ry="92.3236" transform="matrix(-1 0 0 1 260.489 73.334)" fill="#DBAB3B"/>
</g>
<circle cx="19.9062" cy="19.9062" r="17.4062" transform="matrix(-1 0 0 1 154.094 119.324)" fill="white" stroke="#1D1D1B" stroke-width="5"/>
<mask id="mask5_1381_59431" style="mask-type:alpha" maskUnits="userSpaceOnUse" x="114" y="119" width="41" height="41">
<circle cx="19.9062" cy="19.9062" r="17.4062" transform="matrix(-1 0 0 1 154.094 119.324)" fill="white" stroke="#1D1D1B" stroke-width="5"/>
</mask>
<g mask="url(#mask5_1381_59431)">
<circle cx="19.9062" cy="19.9062" r="17.4062" transform="matrix(-1 0 0 1 167.136 119.324)" fill="#1D1D1B" stroke="#1D1D1B" stroke-width="5"/>
</g>
<circle cx="201.457" cy="139.23" r="17.4062" fill="white" stroke="#1D1D1B" stroke-width="5"/>
<mask id="mask6_1381_59431" style="mask-type:alpha" maskUnits="userSpaceOnUse" x="181" y="119" width="41" height="41">
<circle cx="201.457" cy="139.23" r="17.4062" fill="white" stroke="#1D1D1B" stroke-width="5"/>
</mask>
<g mask="url(#mask6_1381_59431)">
<circle cx="188.415" cy="139.23" r="17.4062" fill="#1D1D1B" stroke="#1D1D1B" stroke-width="5"/>
</g>
<path d="M150.661 177.524C150.661 184.727 158.498 190.566 168.165 190.566C177.832 190.566 185.669 184.727 185.669 177.524C185.669 164.482 174 175.359 168.165 175.359C162.331 175.359 150.661 163.795 150.661 177.524Z" fill="#1D1D1B"/>
<mask id="mask7_1381_59431" style="mask-type:alpha" maskUnits="userSpaceOnUse" x="150" y="170" width="36" height="21">
<path d="M150.661 177.524C150.661 184.727 158.498 190.566 168.165 190.566C177.832 190.566 185.669 184.727 185.669 177.524C185.669 164.482 174 175.359 168.165 175.359C162.331 175.359 150.661 163.795 150.661 177.524Z" fill="#D9D9D9"/>
</mask>
<g mask="url(#mask7_1381_59431)">
<ellipse cx="15.4445" cy="9.6099" rx="15.4445" ry="9.6099" transform="matrix(-1 0 0 1 183.953 180.907)" fill="#C95663"/>
</g>
<path d="M150.661 177.524C150.661 184.727 158.498 190.566 168.165 190.566C177.832 190.566 185.669 184.727 185.669 177.524C185.669 164.482 174 175.359 168.165 175.359C162.331 175.359 150.661 163.795 150.661 177.524Z" stroke="#1D1D1B" stroke-width="5"/>
<mask id="mask8_1381_59431" style="mask-type:alpha" maskUnits="userSpaceOnUse" x="75" y="73" width="186" height="185">
<ellipse cx="92.6669" cy="92.3236" rx="92.6669" ry="92.3236" transform="matrix(-1 0 0 1 260.489 73.334)" fill="#FDDB5F"/>
</mask>
<g mask="url(#mask8_1381_59431)">
<path d="M259.654 182.476C222.416 211.07 114.602 211.07 75.945 182.476L72.7532 211.07C112.474 231.782 216.387 234.863 264.265 211.07L259.654 182.476Z" fill="#1D1D1B"/>
<path d="M237.938 227.092C199.806 247.972 132.895 245.918 98.0009 227.092L71.3805 250.2C111.671 270.905 217.073 273.986 265.638 250.2L237.938 227.092Z" fill="#1D1D1B"/>
</g>
<path d="M161.645 221.05C161.645 220.287 161.844 219.537 162.222 218.874L164.702 214.535C166.385 211.589 170.632 211.589 172.316 214.535L174.795 218.874C175.174 219.537 175.373 220.287 175.373 221.05V239.21C175.373 240.166 175.061 241.095 174.483 241.857L172.004 245.131C170.249 247.447 166.768 247.447 165.014 245.131L162.534 241.857C161.957 241.095 161.645 240.166 161.645 239.21L161.645 221.05Z" fill="#B6A7FC"/>
<mask id="mask9_1381_59431" style="mask-type:alpha" maskUnits="userSpaceOnUse" x="161" y="212" width="15" height="35">
<path d="M161.645 221.049C161.645 220.286 161.844 219.536 162.222 218.873L164.702 214.534C166.385 211.589 170.632 211.589 172.316 214.534L174.795 218.873C175.174 219.536 175.373 220.286 175.373 221.049V239.209C175.373 240.165 175.061 241.094 174.483 241.856L172.004 245.13C170.249 247.446 166.768 247.446 165.014 245.13L162.534 241.856C161.957 241.094 161.645 240.165 161.645 239.209L161.645 221.049Z" fill="#B6A7FC"/>
</mask>
<g mask="url(#mask9_1381_59431)">
<path d="M165.35 219.17C167.07 220.924 169.895 220.924 171.614 219.17L173.344 217.404C176.062 214.63 174.096 209.951 170.212 209.951H166.753C162.868 209.951 160.902 214.63 163.621 217.404L165.35 219.17Z" fill="#8775DC"/>
</g>
<path d="M165.377 215.739C167.096 217.494 169.922 217.494 171.641 215.739L173.37 213.974C176.089 211.199 174.123 206.521 170.239 206.521H166.78C162.895 206.521 160.929 211.199 163.648 213.974L165.377 215.739Z" fill="#B6A7FC"/>
<path d="M101.845 116.639C114.343 107.265 140.475 107.549 154.392 116.639C164.232 123.065 157.801 157.541 154.392 160.097C145.303 166.914 116.06 168.795 110.082 164.074C93.5888 151.047 93.6219 122.806 101.845 116.639Z" stroke="#1D1D1B" stroke-width="9.93119"/>
<path d="M235.213 116.639C222.715 107.265 196.583 107.549 182.665 116.639C172.826 123.065 179.257 157.541 182.665 160.097C191.754 166.914 220.997 168.795 226.976 164.074C243.469 151.047 243.436 122.806 235.213 116.639Z" stroke="#1D1D1B" stroke-width="9.93119"/>
<path d="M158.899 132.567C164.81 131.385 171.902 131.385 177.025 132.567" stroke="#1D1D1B" stroke-width="10.3329"/>
<ellipse cx="192.876" cy="130.307" rx="4.11853" ry="4.80495" fill="white"/>
<ellipse cx="143.454" cy="130.307" rx="4.11853" ry="4.80495" fill="white"/>
</svg>
