<svg width="732" height="609" viewBox="0 0 732 609" fill="none" xmlns="http://www.w3.org/2000/svg">
<g clip-path="url(#clip0_1427_67464)">
<rect width="732" height="609" rx="20" fill="#B6A7FC"/>
<path d="M76.2382 438.509H-48.4246C-51.1298 438.509 -53.6326 439.941 -55.0021 442.274L-120.699 554.187C-122.117 556.602 -122.097 559.599 -120.648 561.995L-55.0171 670.507C-53.6355 672.791 -51.1603 674.187 -48.4908 674.187H76.3044C78.9739 674.187 81.4491 672.791 82.8306 670.507L148.461 561.995C149.911 559.599 149.93 556.602 148.513 554.187L82.8157 442.274C81.4462 439.941 78.9434 438.509 76.2382 438.509Z" fill="#6C40BE"/>
<path d="M76.2382 183H-48.4246C-51.1298 183 -53.6326 184.433 -55.0021 186.766L-120.699 298.678C-122.117 301.093 -122.097 304.091 -120.648 306.487L-55.0171 414.998C-53.6355 417.282 -51.1603 418.678 -48.4908 418.678H76.3044C78.9739 418.678 81.4491 417.282 82.8306 414.998L148.461 306.487C149.911 304.091 149.93 301.093 148.513 298.678L82.8157 186.766C81.4462 184.433 78.9434 183 76.2382 183Z" fill="#6C40BE"/>
<path d="M297.426 311.136H172.763C170.058 311.136 167.555 312.569 166.185 314.902L100.488 426.814C99.0708 429.229 99.0905 432.226 100.54 434.623L166.17 543.134C167.552 545.418 170.027 546.814 172.697 546.814H297.492C300.161 546.814 302.637 545.418 304.018 543.134L369.649 434.623C371.098 432.226 371.118 429.229 369.7 426.814L304.003 314.902C302.634 312.569 300.131 311.136 297.426 311.136Z" fill="#6C40BE"/>
<path d="M74.1857 543.159C84.0785 563.343 102.045 576.54 135.141 599.428C135.568 599.723 135.952 600.088 136.265 600.501L157.669 628.672C158.537 629.815 157.938 631.417 156.504 631.415C132.219 631.371 64.11 583.941 40.2619 548.392C25.4547 526.32 26.7312 507.681 41.604 507.681C47.5585 507.681 55.4873 515.971 61.707 525.375C62.5645 526.672 64.5412 526.573 65.3245 525.231C67.8967 520.822 70.4047 518.566 73.2374 517.017C75.1593 515.966 77.6033 516.657 78.5611 518.627C82.0588 525.822 78.2953 532.004 74.3658 538.768C73.5836 540.115 73.5003 541.761 74.1857 543.159Z" fill="#FDDB5F"/>
<mask id="mask0_1427_67464" style="mask-type:alpha" maskUnits="userSpaceOnUse" x="29" y="507" width="129" height="124">
<path d="M73.8654 542.649C83.7582 562.833 101.724 576.03 134.821 598.918C135.247 599.213 135.632 599.578 135.945 599.991L157.349 628.162C158.216 629.305 157.618 630.907 156.184 630.905C131.898 630.861 63.7897 583.431 39.9416 547.882C25.1344 525.81 26.4109 507.171 41.2837 507.171C47.2382 507.171 55.167 515.461 61.3867 524.865C62.2442 526.162 64.2209 526.063 65.0042 524.721C67.5764 520.312 70.0844 518.056 72.9171 516.507C74.839 515.456 77.283 516.147 78.2407 518.117C81.7385 525.312 77.975 531.494 74.0455 538.258C73.2632 539.605 73.1799 541.251 73.8654 542.649Z" fill="#FDDB5F"/>
</mask>
<g mask="url(#mask0_1427_67464)">
<ellipse cx="35.8057" cy="38.7487" rx="35.8057" ry="38.7487" transform="matrix(0.796258 -0.604957 -0.604957 -0.796258 150.629 651.438)" fill="#DBAB3B"/>
</g>
<path d="M386.943 718.622C391.277 696.565 384.954 675.189 372.447 636.942C372.286 636.449 372.201 635.926 372.201 635.408V600.028C372.201 598.593 373.674 597.686 374.823 598.545C400.928 618.056 427.769 744.273 402.611 749.493C402.611 757.868 397.664 761.093 393.988 761.305C393.208 761.35 392.455 761.045 391.859 760.539C387.469 756.814 385.625 750.015 386.14 740.335C386.222 738.783 384.589 737.663 383.153 738.258C378.438 740.213 375.076 740.492 371.883 740.012C369.717 739.686 368.189 737.657 368.619 735.509C370.186 727.664 376.923 725.018 384.144 722.009C385.581 721.41 386.643 720.15 386.943 718.622Z" fill="#FDDB5F"/>
<mask id="mask1_1427_67464" style="mask-type:alpha" maskUnits="userSpaceOnUse" x="368" y="598" width="45" height="164">
<path d="M386.943 718.622C391.277 696.565 384.954 675.189 372.447 636.942C372.286 636.449 372.201 635.926 372.201 635.408V600.028C372.201 598.593 373.674 597.686 374.823 598.545C400.928 618.056 427.769 744.273 402.611 749.493C402.611 757.868 397.664 761.093 393.988 761.305C393.208 761.35 392.455 761.045 391.859 760.539C387.469 756.814 385.625 750.015 386.14 740.335C386.222 738.783 384.589 737.663 383.153 738.258C378.438 740.213 375.076 740.492 371.883 740.012C369.717 739.686 368.189 737.657 368.619 735.509C370.186 727.664 376.923 725.018 384.144 722.009C385.581 721.41 386.643 720.15 386.943 718.622Z" fill="#FDDB5F"/>
</mask>
<g mask="url(#mask1_1427_67464)">
<ellipse cx="35.8057" cy="38.7487" rx="35.8057" ry="38.7487" transform="matrix(-1 0 0 1 391.582 586.16)" fill="#DBAB3B"/>
</g>
<path d="M404.266 566.862L402.223 516.76C402.122 514.288 403.877 512.128 406.317 511.722L412.99 510.61C415.113 510.256 417.218 511.328 418.182 513.252L441.593 560.01C442.934 562.687 441.584 565.93 438.74 566.865L434.676 568.202C433.206 568.685 431.651 567.745 431.396 566.219L418.333 568.395C418.589 569.93 417.43 571.337 415.875 571.381L409.305 571.565C406.621 571.64 404.376 569.544 404.266 566.862Z" fill="#FDDB5F"/>
<mask id="mask2_1427_67464" style="mask-type:alpha" maskUnits="userSpaceOnUse" x="402" y="510" width="41" height="62">
<path d="M404.262 566.862L402.219 516.76C402.118 514.288 403.873 512.128 406.313 511.722L412.986 510.61C415.109 510.256 417.214 511.327 418.178 513.252L441.589 560.01C442.93 562.687 441.58 565.929 438.736 566.865L434.672 568.202C433.202 568.685 431.647 567.745 431.392 566.218L418.329 568.395C418.585 569.93 417.427 571.337 415.871 571.381L409.301 571.565C406.617 571.64 404.372 569.544 404.262 566.862Z" fill="#FDDB5F"/>
</mask>
<g mask="url(#mask2_1427_67464)">
<path d="M418.305 574.388L408.495 519.454" stroke="#DBAB3B" stroke-width="4.9049" stroke-linecap="round"/>
<path d="M433.02 567.522L414.381 517.492" stroke="#DBAB3B" stroke-width="4.9049" stroke-linecap="round"/>
</g>
<path d="M372.734 446.954L383.579 442.02C396.703 462.975 402.098 475.918 409.982 500.061L399.137 504.994C392.373 482.39 387.086 469.642 372.734 446.954Z" fill="#FDDB5F"/>
<ellipse cx="408.011" cy="509.45" rx="11.7718" ry="11.2813" transform="rotate(-28.4663 408.011 509.45)" fill="#FDDB5F"/>
<mask id="mask3_1427_67464" style="mask-type:alpha" maskUnits="userSpaceOnUse" x="396" y="498" width="24" height="23">
<ellipse cx="408.011" cy="509.45" rx="11.7718" ry="11.2813" transform="rotate(-28.4663 408.011 509.45)" fill="#FDDB5F"/>
</mask>
<g mask="url(#mask3_1427_67464)">
<path d="M416.836 501.796C418.483 502.537 426.741 515.115 413.403 521.416C401.646 525.916 397.662 515.061 397.662 515.061C397.662 515.061 405.504 518.641 411.932 515.061C418.359 511.482 416.836 501.796 416.836 501.796Z" fill="#DBAB3B"/>
</g>
<path d="M103.013 448.096C98.9995 446.719 98.5081 441.242 102.213 439.173L251.604 355.758C253.106 354.92 254.938 354.929 256.431 355.784L402.585 439.433C406.236 441.522 405.735 446.937 401.763 448.321L255.512 499.278C254.475 499.639 253.347 499.642 252.308 499.286L103.013 448.096Z" fill="#1D1D1B"/>
<path d="M153.93 454.468C198.564 411.305 308.924 409.343 356.502 454.468L337.373 484.388H171.587L153.93 454.468Z" fill="black"/>
<rect x="331.773" y="429.877" width="8.82881" height="48.068" transform="rotate(30 331.773 429.877)" fill="#1D1D1B"/>
<circle cx="339.277" cy="425.713" r="13.2432" transform="rotate(30 339.277 425.713)" fill="#FDDB5F"/>
<rect width="8.82881" height="48.068" transform="matrix(-0.866025 0.5 0.5 0.866025 184.434 429.877)" fill="#1D1D1B"/>
<circle cx="13.2432" cy="13.2432" r="13.2432" transform="matrix(-0.866025 0.5 0.5 0.866025 181.777 407.622)" fill="#FDDB5F"/>
<ellipse cx="132.432" cy="131.942" rx="132.432" ry="131.942" transform="matrix(-1 0 0 1 390.344 443.918)" fill="#FDDB5F"/>
<mask id="mask4_1427_67464" style="mask-type:alpha" maskUnits="userSpaceOnUse" x="146" y="524" width="246" height="198">
<path d="M146.583 646.491C146.583 719.36 187.017 721.536 259.886 721.536C332.756 721.536 391.828 662.464 391.828 589.594C391.828 565.054 384.471 524.85 384.471 524.85C400.657 661.206 244.681 747.041 146.583 646.491Z" fill="#DBAB3B"/>
</mask>
<g mask="url(#mask4_1427_67464)">
<ellipse cx="132.432" cy="131.942" rx="132.432" ry="131.942" transform="matrix(-1 0 0 1 390.359 443.919)" fill="#DBAB3B"/>
</g>
<circle cx="28.4484" cy="28.4484" r="25.996" transform="matrix(-1 0 0 1 238.297 509.644)" fill="white" stroke="black" stroke-width="4.9049"/>
<mask id="mask5_1427_67464" style="mask-type:alpha" maskUnits="userSpaceOnUse" x="181" y="509" width="58" height="58">
<circle cx="28.4484" cy="28.4484" r="25.996" transform="matrix(-1 0 0 1 238.297 509.644)" fill="white" stroke="black" stroke-width="4.9049"/>
</mask>
<g mask="url(#mask5_1427_67464)">
<circle cx="28.4484" cy="28.4484" r="25.996" transform="matrix(-1 0 0 1 256.934 509.644)" fill="#1D1D1B" stroke="black" stroke-width="4.9049"/>
</g>
<circle cx="305.976" cy="538.092" r="25.996" fill="white" stroke="black" stroke-width="4.9049"/>
<mask id="mask6_1427_67464" style="mask-type:alpha" maskUnits="userSpaceOnUse" x="277" y="509" width="58" height="58">
<circle cx="305.976" cy="538.092" r="25.996" fill="white" stroke="black" stroke-width="4.9049"/>
</mask>
<g mask="url(#mask6_1427_67464)">
<circle cx="287.339" cy="538.092" r="25.996" fill="#1D1D1B" stroke="black" stroke-width="4.9049"/>
</g>
<path d="M233.388 592.818C233.388 603.112 244.588 611.457 258.403 611.457C272.218 611.457 283.418 603.112 283.418 592.818C283.418 574.18 266.741 589.725 258.403 589.725C250.065 589.725 233.388 573.199 233.388 592.818Z" fill="#1D1D1B"/>
<mask id="mask7_1427_67464" style="mask-type:alpha" maskUnits="userSpaceOnUse" x="233" y="583" width="51" height="29">
<path d="M233.388 592.818C233.388 603.112 244.588 611.457 258.403 611.457C272.218 611.457 283.418 603.112 283.418 592.818C283.418 574.18 266.741 589.725 258.403 589.725C250.065 589.725 233.388 573.199 233.388 592.818Z" fill="#D9D9D9"/>
</mask>
<g mask="url(#mask7_1427_67464)">
<ellipse cx="22.072" cy="13.7337" rx="22.072" ry="13.7337" transform="matrix(-1 0 0 1 280.965 597.654)" fill="#C95663"/>
</g>
<path d="M233.388 592.818C233.388 603.112 244.588 611.457 258.403 611.457C272.218 611.457 283.418 603.112 283.418 592.818C283.418 574.18 266.741 589.725 258.403 589.725C250.065 589.725 233.388 573.199 233.388 592.818Z" stroke="#1D1D1B" stroke-width="4.9049"/>
<mask id="mask8_1427_67464" style="mask-type:alpha" maskUnits="userSpaceOnUse" x="125" y="443" width="266" height="265">
<ellipse cx="132.432" cy="131.942" rx="132.432" ry="131.942" transform="matrix(-1 0 0 1 390.352 443.918)" fill="#FDDB5F"/>
</mask>
<g mask="url(#mask8_1427_67464)">
<path d="M389.157 599.894C335.939 640.758 181.86 640.758 126.614 599.894L122.053 640.758C178.819 670.358 327.323 674.762 395.746 640.758L389.157 599.894Z" fill="#1D1D1B"/>
</g>
<path d="M163.626 505.805C181.488 492.41 218.833 492.816 238.723 505.805C252.785 514.989 243.594 564.259 238.723 567.912C225.734 577.655 183.942 580.343 175.398 573.595C151.828 554.979 151.875 514.619 163.626 505.805Z" stroke="#1D1D1B" stroke-width="9.7423"/>
<path d="M354.221 505.805C336.36 492.41 299.015 492.816 279.124 505.805C265.062 514.989 274.253 564.259 279.124 567.912C292.114 577.655 333.905 580.343 342.449 573.595C366.02 554.979 365.973 514.619 354.221 505.805Z" stroke="#1D1D1B" stroke-width="9.7423"/>
<path d="M245.164 528.569C253.611 526.879 263.747 526.879 271.068 528.569" stroke="#1D1D1B" stroke-width="10.1364"/>
<ellipse cx="293.718" cy="525.34" rx="5.88588" ry="6.86685" fill="white"/>
<ellipse cx="223.089" cy="525.34" rx="5.88588" ry="6.86685" fill="white"/>
</g>
<defs>
<clipPath id="clip0_1427_67464">
<rect width="732" height="609" rx="20" fill="white"/>
</clipPath>
</defs>
</svg>
