<svg width="221" height="319" viewBox="0 0 221 319" fill="none" xmlns="http://www.w3.org/2000/svg">
<path d="M28.938 133.784C34.0646 144.244 43.3752 151.082 60.5267 162.943C60.7475 163.096 60.9467 163.286 61.1092 163.499L72.2009 178.099C72.6506 178.691 72.3406 179.521 71.5972 179.52C59.0121 179.497 23.7165 154.918 11.3578 136.495C3.68444 125.057 4.34595 115.398 12.0534 115.398C15.1392 115.398 19.248 119.694 22.4712 124.567C22.9156 125.239 23.94 125.189 24.3459 124.493C25.6789 122.208 26.9786 121.039 28.4466 120.236C29.4425 119.691 30.7091 120.05 31.2054 121.071C33.018 124.799 31.0677 128.003 29.0313 131.508C28.6259 132.206 28.5828 133.059 28.938 133.784Z" fill="#FDDB5F"/>
<mask id="mask0_715_7988" style="mask-type:alpha" maskUnits="userSpaceOnUse" x="5" y="115" width="68" height="65">
<path d="M28.7739 133.52C33.9006 143.98 43.2111 150.819 60.3626 162.68C60.5835 162.832 60.7827 163.022 60.9451 163.236L72.0369 177.835C72.4866 178.427 72.1765 179.257 71.4331 179.256C58.848 179.233 23.5525 154.654 11.1938 136.232C3.52037 124.793 4.18189 115.134 11.8893 115.134C14.9751 115.134 19.084 119.43 22.3072 124.304C22.7515 124.976 23.7759 124.925 24.1819 124.229C25.5148 121.944 26.8145 120.775 28.2825 119.972C29.2785 119.428 30.545 119.786 31.0413 120.807C32.854 124.535 30.9036 127.739 28.8673 131.245C28.4619 131.942 28.4187 132.795 28.7739 133.52Z" fill="#FDDB5F"/>
</mask>
<g mask="url(#mask0_715_7988)">
<ellipse cx="18.5554" cy="20.0805" rx="18.5554" ry="20.0805" transform="matrix(0.796258 -0.604957 -0.604957 -0.796258 68.5547 189.897)" fill="#DBAB3B"/>
</g>
<path d="M191.015 224.712C193.26 213.282 189.984 202.204 183.502 182.384C183.419 182.128 183.375 181.857 183.375 181.589V163.254C183.375 162.51 184.138 162.04 184.734 162.485C198.261 172.596 212.171 238.005 199.134 240.71C199.134 245.05 196.57 246.722 194.665 246.831C194.261 246.855 193.871 246.697 193.562 246.435C191.287 244.504 190.331 240.981 190.598 235.964C190.641 235.16 189.795 234.58 189.05 234.888C186.607 235.901 184.865 236.046 183.21 235.797C182.088 235.628 181.296 234.576 181.518 233.463C182.33 229.398 185.822 228.027 189.564 226.467C190.309 226.157 190.859 225.504 191.015 224.712Z" fill="#FDDB5F"/>
<mask id="mask1_715_7988" style="mask-type:alpha" maskUnits="userSpaceOnUse" x="181" y="162" width="24" height="85">
<path d="M191.015 224.712C193.26 213.282 189.984 202.204 183.502 182.384C183.419 182.128 183.375 181.857 183.375 181.589V163.254C183.375 162.51 184.138 162.04 184.734 162.485C198.261 172.596 212.171 238.005 199.134 240.71C199.134 245.05 196.57 246.722 194.665 246.831C194.261 246.855 193.871 246.697 193.562 246.435C191.287 244.504 190.331 240.981 190.598 235.964C190.641 235.16 189.795 234.58 189.05 234.888C186.607 235.901 184.865 236.046 183.21 235.797C182.088 235.628 181.296 234.576 181.518 233.463C182.33 229.398 185.822 228.027 189.564 226.467C190.309 226.157 190.859 225.504 191.015 224.712Z" fill="#FDDB5F"/>
</mask>
<g mask="url(#mask1_715_7988)">
<ellipse cx="18.5554" cy="20.0805" rx="18.5554" ry="20.0805" transform="matrix(-1 0 0 1 193.422 156.067)" fill="#DBAB3B"/>
</g>
<path d="M98.8994 296.531V206.905C98.8994 205.501 100.037 204.363 101.441 204.363H108.813C110.216 204.363 111.354 205.501 111.354 206.905V316.458C111.354 317.862 110.216 319 108.813 319H71.113C69.9614 319 68.9397 318.222 68.7144 317.093C66.0254 303.614 74.4696 295.339 95.7955 299.073C97.3917 299.352 98.8994 298.151 98.8994 296.531Z" fill="#1D1D1B"/>
<path d="M150.335 296.531V206.905C150.335 205.501 149.197 204.363 147.793 204.363H140.422C139.018 204.363 137.88 205.501 137.88 206.905V316.458C137.88 317.862 139.018 319 140.422 319H178.121C179.273 319 180.295 318.222 180.52 317.093C183.209 303.614 174.765 295.339 153.439 299.073C151.843 299.352 150.335 298.151 150.335 296.531Z" fill="#1D1D1B"/>
<path d="M199.982 146.068L198.923 120.104C198.87 118.823 199.78 117.703 201.045 117.493L204.502 116.917C205.602 116.733 206.694 117.288 207.193 118.286L219.325 142.517C220.02 143.904 219.32 145.585 217.847 146.069L215.741 146.762C214.979 147.013 214.173 146.525 214.041 145.734L207.271 146.862C207.404 147.658 206.804 148.387 205.998 148.409L202.593 148.505C201.202 148.544 200.038 147.458 199.982 146.068Z" fill="#FDDB5F"/>
<mask id="mask2_715_7988" style="mask-type:alpha" maskUnits="userSpaceOnUse" x="198" y="116" width="22" height="33">
<path d="M199.982 146.068L198.923 120.104C198.87 118.823 199.78 117.703 201.045 117.493L204.502 116.917C205.602 116.733 206.694 117.288 207.193 118.286L219.325 142.517C220.02 143.904 219.32 145.585 217.847 146.069L215.741 146.762C214.979 147.013 214.173 146.525 214.041 145.734L207.271 146.862C207.404 147.658 206.804 148.387 205.998 148.409L202.593 148.505C201.202 148.544 200.038 147.458 199.982 146.068Z" fill="#FDDB5F"/>
</mask>
<g mask="url(#mask2_715_7988)">
<path d="M207.262 149.969L202.178 121.5" stroke="#DBAB3B" stroke-width="2.54183" stroke-linecap="round"/>
<path d="M214.887 146.409L205.228 120.482" stroke="#DBAB3B" stroke-width="2.54183" stroke-linecap="round"/>
</g>
<path d="M183.641 83.9287L189.261 81.3722C196.062 92.2316 198.857 98.9389 202.943 111.45L197.323 114.007C193.818 102.293 191.078 95.6866 183.641 83.9287Z" fill="#FDDB5F"/>
<ellipse cx="201.923" cy="116.316" rx="6.1004" ry="5.84622" transform="rotate(-28.4663 201.923 116.316)" fill="#FDDB5F"/>
<mask id="mask3_715_7988" style="mask-type:alpha" maskUnits="userSpaceOnUse" x="195" y="110" width="13" height="13">
<ellipse cx="201.931" cy="116.316" rx="6.1004" ry="5.84622" transform="rotate(-28.4663 201.931 116.316)" fill="#FDDB5F"/>
</mask>
<g mask="url(#mask3_715_7988)">
<path d="M206.504 112.35C207.357 112.734 211.636 119.252 204.724 122.517C198.632 124.85 196.567 119.224 196.567 119.224C196.567 119.224 200.631 121.079 203.962 119.224C207.293 117.369 206.504 112.35 206.504 112.35Z" fill="#DBAB3B"/>
</g>
<path d="M43.8717 84.5201C41.7918 83.8069 41.5372 80.9683 43.457 79.8963L120.875 36.6688C121.653 36.2341 122.603 36.2391 123.377 36.682L199.117 80.0308C201.009 81.1137 200.75 83.9199 198.691 84.6372L122.901 111.044C122.363 111.231 121.778 111.233 121.24 111.048L43.8717 84.5201Z" fill="#1D1D1B"/>
<path d="M70.2578 87.8226C93.3885 65.4544 150.58 64.4377 175.236 87.8226L165.322 103.328H79.4084L70.2578 87.8226Z" fill="black"/>
<rect x="162.418" y="75.0791" width="4.5753" height="24.91" transform="rotate(30 162.418 75.0791)" fill="#1D1D1B"/>
<circle cx="166.309" cy="72.9209" r="6.86295" transform="rotate(30 166.309 72.9209)" fill="#FDDB5F"/>
<rect width="4.5753" height="24.91" transform="matrix(-0.866025 0.5 0.5 0.866025 86.0703 75.0791)" fill="#1D1D1B"/>
<circle cx="6.86295" cy="6.86295" r="6.86295" transform="matrix(-0.866025 0.5 0.5 0.866025 84.6914 63.5459)" fill="#FDDB5F"/>
<ellipse cx="68.6295" cy="68.3753" rx="68.6295" ry="68.3753" transform="matrix(-1 0 0 1 192.777 82.3564)" fill="#FDDB5F"/>
<mask id="mask4_715_7988" style="mask-type:alpha" maskUnits="userSpaceOnUse" x="66" y="124" width="128" height="103">
<path d="M66.4474 187.334C66.4474 225.097 87.4011 226.224 125.164 226.224C162.926 226.224 193.539 195.612 193.539 157.849C193.539 145.132 189.726 124.297 189.726 124.297C198.114 194.96 117.284 239.442 66.4474 187.334Z" fill="#DBAB3B"/>
</mask>
<g mask="url(#mask4_715_7988)">
<ellipse cx="68.6295" cy="68.3753" rx="68.6295" ry="68.3753" transform="matrix(-1 0 0 1 192.777 82.3564)" fill="#DBAB3B"/>
</g>
<circle cx="14.7426" cy="14.7426" r="13.4717" transform="matrix(-1 0 0 1 113.98 116.417)" fill="white" stroke="black" stroke-width="2.54183"/>
<mask id="mask5_715_7988" style="mask-type:alpha" maskUnits="userSpaceOnUse" x="84" y="116" width="30" height="30">
<circle cx="14.7426" cy="14.7426" r="13.4717" transform="matrix(-1 0 0 1 113.98 116.417)" fill="white" stroke="black" stroke-width="2.54183"/>
</mask>
<g mask="url(#mask5_715_7988)">
<circle cx="14.7426" cy="14.7426" r="13.4717" transform="matrix(-1 0 0 1 123.637 116.417)" fill="#1D1D1B" stroke="black" stroke-width="2.54183"/>
</g>
<circle cx="149.055" cy="131.16" r="13.4717" fill="white" stroke="black" stroke-width="2.54183"/>
<mask id="mask6_715_7988" style="mask-type:alpha" maskUnits="userSpaceOnUse" x="134" y="116" width="30" height="30">
<circle cx="149.055" cy="131.16" r="13.4717" fill="white" stroke="black" stroke-width="2.54183"/>
</mask>
<g mask="url(#mask6_715_7988)">
<circle cx="139.395" cy="131.16" r="13.4717" fill="#1D1D1B" stroke="black" stroke-width="2.54183"/>
</g>
<path d="M111.437 159.519C111.437 164.854 117.24 169.178 124.4 169.178C131.559 169.178 137.363 164.854 137.363 159.519C137.363 149.86 128.721 157.916 124.4 157.916C120.079 157.916 111.437 149.352 111.437 159.519Z" fill="#1D1D1B"/>
<mask id="mask7_715_7988" style="mask-type:alpha" maskUnits="userSpaceOnUse" x="111" y="154" width="27" height="16">
<path d="M111.437 159.519C111.437 164.854 117.24 169.178 124.4 169.178C131.559 169.178 137.363 164.854 137.363 159.519C137.363 149.86 128.721 157.916 124.4 157.916C120.079 157.916 111.437 149.352 111.437 159.519Z" fill="#D9D9D9"/>
</mask>
<g mask="url(#mask7_715_7988)">
<ellipse cx="11.4382" cy="7.11713" rx="11.4382" ry="7.11713" transform="matrix(-1 0 0 1 136.094 162.025)" fill="#C95663"/>
</g>
<path d="M111.437 159.519C111.437 164.854 117.24 169.178 124.4 169.178C131.559 169.178 137.363 164.854 137.363 159.519C137.363 149.86 128.721 157.916 124.4 157.916C120.079 157.916 111.437 149.352 111.437 159.519Z" stroke="#1D1D1B" stroke-width="2.54183"/>
<mask id="mask8_715_7988" style="mask-type:alpha" maskUnits="userSpaceOnUse" x="55" y="82" width="138" height="138">
<ellipse cx="68.6295" cy="68.3753" rx="68.6295" ry="68.3753" transform="matrix(-1 0 0 1 192.77 82.3564)" fill="#FDDB5F"/>
</mask>
<g mask="url(#mask8_715_7988)">
<path d="M192.152 163.187C164.573 184.363 84.7255 184.363 56.096 163.187L53.7321 184.363C83.1496 199.703 160.108 201.985 195.566 184.363L192.152 163.187Z" fill="#1D1D1B"/>
<path d="M176.068 196.23C147.827 211.694 98.2724 210.173 72.4295 196.23L52.7143 213.344C82.5535 228.679 160.615 230.961 196.582 213.344L176.068 196.23Z" fill="#1D1D1B"/>
</g>
<path d="M119.57 191.484C119.57 191.097 119.672 190.715 119.864 190.379L122.719 185.383C123.574 183.885 125.734 183.885 126.589 185.383L129.444 190.379C129.636 190.715 129.738 191.097 129.738 191.484V205.546C129.738 206.032 129.579 206.505 129.285 206.892L126.431 210.661C125.539 211.838 123.769 211.838 122.877 210.661L120.023 206.892C119.729 206.505 119.57 206.032 119.57 205.546L119.57 191.484Z" fill="#B6A7FC"/>
<mask id="mask9_715_7988" style="mask-type:alpha" maskUnits="userSpaceOnUse" x="119" y="184" width="11" height="28">
<path d="M119.574 191.484C119.574 191.097 119.675 190.715 119.868 190.379L122.723 185.383C123.578 183.885 125.737 183.885 126.593 185.383L129.448 190.379C129.64 190.715 129.742 191.097 129.742 191.484V205.546C129.742 206.032 129.583 206.505 129.289 206.892L126.435 210.661C125.543 211.838 123.773 211.838 122.881 210.661L120.026 206.892C119.733 206.505 119.574 206.032 119.574 205.546L119.574 191.484Z" fill="#B6A7FC"/>
</mask>
<g mask="url(#mask9_715_7988)">
<path d="M123.048 191.105C123.922 191.997 125.358 191.997 126.232 191.105L129.936 187.325C131.318 185.914 130.319 183.536 128.344 183.536H120.936C118.961 183.536 117.962 185.914 119.344 187.325L123.048 191.105Z" fill="#8775DC"/>
</g>
<path d="M123.064 188.563C123.938 189.455 125.374 189.455 126.248 188.563L129.952 184.783C131.334 183.372 130.335 180.994 128.36 180.994H120.952C118.977 180.994 117.978 183.372 119.36 184.783L123.064 188.563Z" fill="#B6A7FC"/>
<path d="M75.2842 114.428C84.5403 107.486 103.894 107.696 114.201 114.428C121.488 119.187 116.725 144.72 114.201 146.613C107.47 151.662 85.8123 153.055 81.3847 149.558C69.1698 139.911 69.1942 118.995 75.2842 114.428Z" stroke="#1D1D1B" stroke-width="5.04869"/>
<path d="M174.056 114.428C164.8 107.486 145.446 107.696 135.139 114.428C127.851 119.187 132.614 144.72 135.139 146.613C141.87 151.662 163.527 153.055 167.955 149.558C180.17 139.911 180.146 118.995 174.056 114.428Z" stroke="#1D1D1B" stroke-width="5.04869"/>
<path d="M117.539 126.224C121.916 125.349 127.169 125.349 130.963 126.224" stroke="#1D1D1B" stroke-width="5.25291"/>
<ellipse cx="142.703" cy="124.551" rx="3.0502" ry="3.55857" fill="white"/>
<ellipse cx="106.101" cy="124.551" rx="3.0502" ry="3.55857" fill="white"/>
</svg>
