<svg width="274" height="295" viewBox="0 0 274 295" fill="none" xmlns="http://www.w3.org/2000/svg">
<path d="M88.0366 225.836C98.3963 236.361 112.336 240.854 137.721 248.244C138.047 248.339 138.363 248.487 138.644 248.679L157.838 261.791C158.616 262.323 158.576 263.446 157.681 263.742C142.535 268.761 90.2294 253.348 67.9792 236.145C54.1643 225.464 51.0875 213.582 60.3576 210.492C64.069 209.255 70.7333 212.774 76.5638 217.344C77.3677 217.974 78.5794 217.502 78.7886 216.502C79.4758 213.22 80.5704 211.293 82.0141 209.739C82.9937 208.684 84.6607 208.607 85.6669 209.636C89.3418 213.394 88.2805 218.029 87.2366 223.062C87.0288 224.064 87.3188 225.107 88.0366 225.836Z" fill="#FDDB5F"/>
<mask id="mask0_1427_69509" style="mask-type:alpha" maskUnits="userSpaceOnUse" x="54" y="208" width="105" height="57">
<path d="M87.728 225.584C98.0877 236.11 112.028 240.602 137.412 247.992C137.739 248.087 138.054 248.235 138.335 248.427L157.529 261.54C158.307 262.071 158.267 263.194 157.373 263.491C142.227 268.509 89.9208 253.097 67.6706 235.894C53.8557 225.213 50.7789 213.331 60.049 210.24C63.7604 209.003 70.4247 212.523 76.2552 217.092C77.0591 217.722 78.2708 217.25 78.48 216.251C79.1672 212.968 80.2618 211.041 81.7055 209.487C82.6851 208.433 84.3521 208.356 85.3583 209.385C89.0332 213.142 87.9719 217.778 86.928 222.81C86.7202 223.812 87.0102 224.855 87.728 225.584Z" fill="#FDDB5F"/>
</mask>
<g mask="url(#mask0_1427_69509)">
<ellipse cx="23.5247" cy="25.4582" rx="23.5247" ry="25.4582" transform="matrix(0.564095 -0.82571 -0.82571 -0.564095 158.178 277.443)" fill="#DBAB3B"/>
</g>
<path d="M237.424 393.533L201.492 285.735C200.929 284.047 201.842 282.222 203.53 281.659L212.396 278.704C214.085 278.141 215.91 279.053 216.472 280.742L260.394 412.507C260.957 414.195 260.044 416.02 258.356 416.583L213.012 431.697C211.627 432.159 210.087 431.633 209.363 430.365C200.725 415.231 207.564 401.894 234.71 397.834C236.742 397.531 238.074 395.482 237.424 393.533Z" fill="#1D1D1B"/>
<path d="M299.283 372.913L263.351 265.115C262.788 263.427 260.963 262.514 259.274 263.077L250.409 266.032C248.72 266.595 247.808 268.42 248.37 270.108L292.292 401.873C292.855 403.562 294.68 404.474 296.368 403.912L341.711 388.797C343.096 388.336 344.013 386.99 343.831 385.541C341.662 368.252 328.188 361.685 304.035 374.725C302.227 375.701 299.933 374.862 299.283 372.913Z" fill="#1D1D1B"/>
<path d="M254.121 103.847L259.856 98.5186C272.389 108.853 278.441 115.8 288.371 129.209L282.636 134.538C273.724 121.854 267.78 115.007 254.121 103.847Z" fill="#FDDB5F"/>
<path d="M86.2475 160.596C83.46 160.572 82.0157 157.26 83.895 155.201L159.679 72.1707C160.441 71.3358 161.585 70.9612 162.693 71.1836L271.169 92.956C273.879 93.4999 274.692 96.9792 272.503 98.6673L191.933 160.814C191.362 161.254 190.659 161.49 189.938 161.484L86.2475 160.596Z" fill="#1D1D1B"/>
<path d="M119.305 153.989C138.158 117.813 206.537 93.6611 245.567 111.902L239.861 134.526L136.527 168.97L119.305 153.989Z" fill="black"/>
<rect x="225.051" y="101.713" width="5.80061" height="31.5811" transform="rotate(11.5652 225.051 101.713)" fill="#1D1D1B"/>
<circle cx="228.862" cy="97.5582" r="8.70092" transform="rotate(11.5652 228.862 97.5582)" fill="#FDDB5F"/>
<rect width="5.80061" height="31.5811" transform="matrix(-0.663472 0.748201 0.748201 0.663472 133.207 132.326)" fill="#1D1D1B"/>
<circle cx="8.70092" cy="8.70092" r="8.70092" transform="matrix(-0.663472 0.748201 0.748201 0.663472 126.93 119.006)" fill="#FDDB5F"/>
<ellipse cx="87.0092" cy="86.6869" rx="87.0092" ry="86.6869" transform="matrix(-0.948684 0.316226 0.316226 0.948684 264.477 98.2949)" fill="#FDDB5F"/>
<mask id="mask1_1427_69509" style="mask-type:alpha" maskUnits="userSpaceOnUse" x="154" y="149" width="147" height="161">
<path d="M154.62 275.205C169.76 320.624 195.414 313.579 240.833 298.44C286.252 283.3 310.798 234.208 295.659 188.789C290.56 173.493 277.621 149.962 277.621 149.962C316.04 231.589 236.655 317.496 154.62 275.205Z" fill="#DBAB3B"/>
</mask>
<g mask="url(#mask1_1427_69509)">
<ellipse cx="87.0092" cy="86.6869" rx="87.0092" ry="86.6869" transform="matrix(-0.948684 0.316226 0.316226 0.948684 264.477 98.2957)" fill="#DBAB3B"/>
</g>
<circle cx="18.6909" cy="18.6909" r="17.0796" transform="matrix(-0.948684 0.316226 0.316226 0.948684 183.355 170.852)" fill="white" stroke="#1D1D1B" stroke-width="3.22256"/>
<mask id="mask2_1427_69509" style="mask-type:alpha" maskUnits="userSpaceOnUse" x="152" y="175" width="39" height="39">
<circle cx="18.6909" cy="18.6909" r="17.0796" transform="matrix(-0.948684 0.316226 0.316226 0.948684 183.355 170.852)" fill="white" stroke="#1D1D1B" stroke-width="3.22256"/>
</mask>
<g mask="url(#mask2_1427_69509)">
<circle cx="18.6909" cy="18.6909" r="17.0796" transform="matrix(-0.948684 0.316226 0.316226 0.948684 194.973 166.98)" fill="#1D1D1B" stroke="#1D1D1B" stroke-width="3.22256"/>
</g>
<circle cx="231.455" cy="174.52" r="17.0796" transform="rotate(-18.4348 231.455 174.52)" fill="white" stroke="#1D1D1B" stroke-width="3.22256"/>
<mask id="mask3_1427_69509" style="mask-type:alpha" maskUnits="userSpaceOnUse" x="212" y="155" width="39" height="39">
<circle cx="231.455" cy="174.52" r="17.0796" transform="rotate(-18.4348 231.455 174.52)" fill="white" stroke="#1D1D1B" stroke-width="3.22256"/>
</mask>
<g mask="url(#mask3_1427_69509)">
<circle cx="219.838" cy="178.393" r="17.0796" transform="rotate(-18.4348 219.838 178.393)" fill="#1D1D1B" stroke="#1D1D1B" stroke-width="3.22256"/>
</g>
<path d="M197.577 223.713C199.716 230.129 208.43 233.004 217.041 230.133C225.652 227.263 230.899 219.735 228.76 213.319C224.888 201.702 217.723 214.856 212.526 216.588C207.329 218.321 193.501 211.484 197.577 223.713Z" fill="#1D1D1B"/>
<mask id="mask4_1427_69509" style="mask-type:alpha" maskUnits="userSpaceOnUse" x="196" y="208" width="34" height="24">
<path d="M197.577 223.713C199.716 230.129 208.43 233.004 217.041 230.133C225.652 227.263 230.899 219.735 228.76 213.319C224.888 201.702 217.723 214.856 212.526 216.588C207.329 218.321 193.501 211.484 197.577 223.713Z" fill="#D9D9D9"/>
</mask>
<g mask="url(#mask4_1427_69509)">
<ellipse cx="14.5015" cy="9.02317" rx="14.5015" ry="9.02317" transform="matrix(-0.948684 0.316226 0.316226 0.948684 228.234 216.843)" fill="#C95663"/>
</g>
<path d="M197.577 223.713C199.716 230.129 208.43 233.004 217.041 230.133C225.652 227.263 230.899 219.735 228.76 213.319C224.888 201.702 217.723 214.856 212.526 216.588C207.329 218.321 193.501 211.484 197.577 223.713Z" stroke="#1D1D1B" stroke-width="3.22256"/>
<mask id="mask5_1427_69509" style="mask-type:alpha" maskUnits="userSpaceOnUse" x="122" y="121" width="175" height="174">
<ellipse cx="87.0092" cy="86.6869" rx="87.0092" ry="86.6869" transform="matrix(-0.948684 0.316226 0.316226 0.948684 264.477 98.2939)" fill="#FDDB5F"/>
</mask>
<g mask="url(#mask5_1427_69509)">
<path d="M296.135 195.761C271.455 232.288 175.418 264.3 132.494 250.307L138.141 276.726C179.673 283.381 273.149 255.273 308.732 219.862L296.135 195.761Z" fill="#1D1D1B"/>
<path d="M290.045 241.952C262.278 271.873 202.067 289.911 165.394 283.502L148.543 311.99C190.58 318.471 285.383 289.919 321.58 254.311L290.045 241.952Z" fill="#1D1D1B"/>
</g>
<path d="M220.175 258.897C220.02 258.431 219.989 257.932 220.085 257.45L221.516 250.297C221.944 248.152 224.541 247.287 226.171 248.745L231.607 253.609C231.974 253.937 232.248 254.355 232.404 254.821L238.041 271.734C238.236 272.319 238.235 272.951 238.037 273.534L236.115 279.211C235.514 280.985 233.385 281.695 231.841 280.636L226.896 277.248C226.388 276.9 226.008 276.395 225.813 275.81L220.175 258.897Z" fill="#B6A7FC"/>
<mask id="mask6_1427_69509" style="mask-type:alpha" maskUnits="userSpaceOnUse" x="220" y="248" width="19" height="34">
<path d="M220.175 258.898C220.02 258.431 219.989 257.932 220.085 257.45L221.516 250.297C221.944 248.153 224.541 247.287 226.171 248.745L231.607 253.609C231.974 253.937 232.248 254.355 232.404 254.822L238.041 271.735C238.236 272.319 238.235 272.951 238.037 273.535L236.115 279.212C235.514 280.986 233.385 281.695 231.841 280.637L226.896 277.248C226.388 276.9 226.008 276.395 225.813 275.811L220.175 258.898Z" fill="#B6A7FC"/>
</mask>
<g mask="url(#mask6_1427_69509)">
<path d="M224.198 257.05C225.607 257.773 227.335 257.197 228.028 255.773L230.968 249.741C232.064 247.491 229.909 245.031 227.534 245.823L218.624 248.793C216.248 249.584 216 252.845 218.228 253.988L224.198 257.05Z" fill="#8775DC"/>
</g>
<path d="M223.206 253.985C224.615 254.707 226.343 254.131 227.036 252.708L229.975 246.676C231.072 244.425 228.917 241.965 226.541 242.757L217.631 245.727C215.256 246.519 215.008 249.78 217.235 250.923L223.206 253.985Z" fill="#B6A7FC"/>
<path d="M136.02 183.973C144.369 171.912 167.731 164.406 182.827 168.37C193.5 171.173 198.008 203.792 195.731 207.081C189.658 215.852 164.169 226.211 157.441 223.78C138.882 217.074 130.526 191.908 136.02 183.973Z" stroke="#1D1D1B" stroke-width="6.40078"/>
<path d="M254.823 144.373C240.907 139.735 217.714 147.747 208.015 159.976C201.158 168.621 217.124 197.422 220.919 198.687C231.039 202.06 257.646 195.053 261.569 189.072C272.393 172.572 263.978 147.426 254.823 144.373Z" stroke="#1D1D1B" stroke-width="6.40078"/>
<path d="M191.568 181.221C196.482 178.413 202.8 176.307 207.714 175.839" stroke="#1D1D1B" stroke-width="6.65969"/>
<ellipse cx="221.166" cy="169.12" rx="3.86707" ry="4.51159" transform="rotate(-18.4348 221.166 169.12)" fill="white"/>
<ellipse cx="177.142" cy="183.794" rx="3.86707" ry="4.51159" transform="rotate(-18.4348 177.142 183.794)" fill="white"/>
</svg>
