<svg width="169" height="206" viewBox="0 0 169 206" fill="none" xmlns="http://www.w3.org/2000/svg">
<path d="M18.809 179.954C16.6734 169.308 19.7154 159.029 25.7552 140.561C25.8234 140.352 25.8595 140.13 25.8595 139.911V122.707C25.8595 122.099 25.2372 121.711 24.7432 122.065C12.1662 131.075 -0.864255 192.122 11.2598 194.638C11.2598 198.71 13.6953 200.246 15.4665 200.312C15.7975 200.324 16.1154 200.196 16.3704 199.984C18.5461 198.18 19.4425 194.831 19.1561 190.038C19.1168 189.381 19.8079 188.906 20.4136 189.165C22.8798 190.219 24.5809 190.334 26.218 190.053C27.1326 189.896 27.7746 189.045 27.6175 188.13C26.9351 184.156 23.5746 182.883 19.9969 181.39C19.388 181.135 18.9388 180.601 18.809 179.954Z" fill="#FDDB5F"/>
<mask id="mask0_1721_63262" style="mask-type:alpha" maskUnits="userSpaceOnUse" x="6" y="121" width="22" height="80">
<path d="M18.809 179.954C16.6734 169.308 19.7154 159.029 25.7552 140.561C25.8234 140.352 25.8595 140.13 25.8595 139.911V122.707C25.8595 122.099 25.2372 121.711 24.7432 122.065C12.1662 131.075 -0.864255 192.122 11.2598 194.638C11.2598 198.71 13.6953 200.246 15.4665 200.312C15.7975 200.324 16.1154 200.196 16.3704 199.984C18.5461 198.18 19.4425 194.831 19.1561 190.038C19.1168 189.381 19.8079 188.906 20.4136 189.165C22.8798 190.219 24.5809 190.334 26.218 190.053C27.1326 189.896 27.7746 189.045 27.6175 188.13C26.9351 184.156 23.5746 182.883 19.9969 181.39C19.388 181.135 18.9388 180.601 18.809 179.954Z" fill="#FDDB5F"/>
</mask>
<g mask="url(#mask0_1721_63262)">
<ellipse cx="33.7448" cy="134.826" rx="17.1901" ry="18.603" fill="#DBAB3B"/>
</g>
<path d="M141.347 179.954C143.483 169.308 140.441 159.029 134.401 140.561C134.333 140.352 134.297 140.13 134.297 139.911V122.707C134.297 122.099 134.919 121.711 135.413 122.065C147.99 131.075 161.021 192.122 148.896 194.638C148.896 198.71 146.461 200.246 144.69 200.312C144.359 200.324 144.041 200.196 143.786 199.984C141.61 198.18 140.714 194.831 141 190.038C141.039 189.381 140.348 188.906 139.743 189.165C137.276 190.219 135.575 190.334 133.938 190.053C133.024 189.896 132.382 189.045 132.539 188.13C133.221 184.156 136.582 182.883 140.159 181.39C140.768 181.135 141.217 180.601 141.347 179.954Z" fill="#FDDB5F"/>
<mask id="mask1_1721_63262" style="mask-type:alpha" maskUnits="userSpaceOnUse" x="132" y="121" width="22" height="80">
<path d="M141.347 179.954C143.483 169.308 140.441 159.029 134.401 140.561C134.333 140.352 134.297 140.13 134.297 139.911V122.707C134.297 122.099 134.919 121.711 135.413 122.065C147.99 131.075 161.021 192.122 148.896 194.638C148.896 198.71 146.461 200.246 144.69 200.312C144.359 200.324 144.041 200.196 143.786 199.984C141.61 198.18 140.714 194.831 141 190.038C141.039 189.381 140.348 188.906 139.743 189.165C137.276 190.219 135.575 190.334 133.938 190.053C133.024 189.896 132.382 189.045 132.539 188.13C133.221 184.156 136.582 182.883 140.159 181.39C140.768 181.135 141.217 180.601 141.347 179.954Z" fill="#FDDB5F"/>
</mask>
<g mask="url(#mask1_1721_63262)">
<ellipse cx="17.1901" cy="18.603" rx="17.1901" ry="18.603" transform="matrix(-1 0 0 1 143.609 116.223)" fill="#DBAB3B"/>
</g>
<path d="M56.0374 246.693V163.042C56.0374 161.895 56.9678 160.964 58.1155 160.964H65.4978C66.6455 160.964 67.5759 161.895 67.5759 163.042V265.088C67.5759 266.236 66.6455 267.166 65.4978 267.166H30.0829C29.1413 267.166 28.3077 266.531 28.1161 265.609C25.4801 252.926 33.3838 245.139 53.5028 248.766C54.8066 249.001 56.0374 248.018 56.0374 246.693Z" fill="#1D1D1B"/>
<path d="M103.681 246.693V163.042C103.681 161.895 102.751 160.964 101.603 160.964H94.221C93.0732 160.964 92.1428 161.895 92.1428 163.042V265.088C92.1428 266.236 93.0732 267.166 94.221 267.166H129.636C130.577 267.166 131.411 266.531 131.603 265.609C134.239 252.926 126.335 245.139 106.216 248.766C104.912 249.001 103.681 248.018 103.681 246.693Z" fill="#1D1D1B"/>
<path d="M149.702 107.231L148.7 82.6601C148.657 81.6129 149.401 80.6978 150.434 80.5256L154.08 79.9181C154.98 79.7682 155.872 80.2222 156.28 81.0375L167.754 103.955C168.322 105.089 167.751 106.463 166.546 106.859L164.29 107.601C163.584 107.833 162.838 107.382 162.716 106.649L156.444 107.694C156.567 108.431 156.011 109.106 155.264 109.127L151.836 109.223C150.699 109.255 149.748 108.367 149.702 107.231Z" fill="#FDDB5F"/>
<mask id="mask2_1721_63262" style="mask-type:alpha" maskUnits="userSpaceOnUse" x="148" y="79" width="20" height="31">
<path d="M149.71 107.231L148.707 82.6606C148.665 81.6134 149.408 80.6983 150.442 80.5261L154.088 79.9185C154.987 79.7687 155.879 80.2226 156.288 81.038L167.762 103.955C168.33 105.089 167.758 106.463 166.553 106.86L164.298 107.602C163.592 107.834 162.845 107.382 162.723 106.649L156.452 107.694C156.575 108.431 156.018 109.107 155.272 109.128L151.844 109.224C150.707 109.256 149.756 108.368 149.71 107.231Z" fill="#FDDB5F"/>
</mask>
<g mask="url(#mask2_1721_63262)">
<path d="M156.445 110.572L151.736 84.198" stroke="#DBAB3B" stroke-width="2.07811" stroke-linecap="round"/>
<path d="M163.508 107.275L154.56 83.2559" stroke="#DBAB3B" stroke-width="2.07811" stroke-linecap="round"/>
</g>
<path d="M134.562 49.3909L139.769 47.0224C146.07 57.0829 148.66 63.2966 152.445 74.8873L147.238 77.2557C143.991 66.4037 141.453 60.2836 134.562 49.3909Z" fill="#FDDB5F"/>
<ellipse cx="151.495" cy="79.3951" rx="5.65154" ry="5.41605" transform="rotate(-28.4663 151.495 79.3951)" fill="#FDDB5F"/>
<mask id="mask3_1721_63262" style="mask-type:alpha" maskUnits="userSpaceOnUse" x="145" y="73" width="12" height="12">
<ellipse cx="151.349" cy="79.3954" rx="5.65154" ry="5.41605" transform="rotate(-28.4663 151.349 79.3954)" fill="#FDDB5F"/>
</mask>
<g mask="url(#mask3_1721_63262)">
<path d="M155.589 75.7205C156.38 76.0763 160.344 82.1147 153.941 85.1397C148.297 87.3004 146.384 82.089 146.384 82.089C146.384 82.089 150.149 83.8075 153.235 82.089C156.321 80.3705 155.589 75.7205 155.589 75.7205Z" fill="#DBAB3B"/>
</g>
<path d="M4.47599 49.7939C2.7751 49.2122 2.56511 46.8916 4.13395 46.014L76.5019 5.53221C77.1382 5.17632 77.9143 5.17982 78.5473 5.54144L149.409 46.0247C150.957 46.9089 150.746 49.2033 149.063 49.791L78.2054 74.5414C77.766 74.6948 77.2879 74.6964 76.8476 74.5458L4.47599 49.7939Z" fill="#1D1D1B"/>
<path d="M29.5078 52.9982C50.9366 32.2759 103.92 31.334 126.761 52.9982L117.578 67.3626H37.9851L29.5078 52.9982Z" fill="black"/>
<rect x="114.891" y="41.1921" width="4.23865" height="23.0771" transform="rotate(30 114.891 41.1921)" fill="#1D1D1B"/>
<circle cx="118.491" cy="39.193" r="6.35798" transform="rotate(30 118.491 39.193)" fill="#FDDB5F"/>
<rect width="4.23865" height="23.0771" transform="matrix(-0.866025 0.5 0.5 0.866025 44.1562 41.1921)" fill="#1D1D1B"/>
<circle cx="6.35798" cy="6.35798" r="6.35798" transform="matrix(-0.866025 0.5 0.5 0.866025 42.8828 30.5078)" fill="#FDDB5F"/>
<ellipse cx="63.5798" cy="63.3443" rx="63.5798" ry="63.3443" transform="matrix(-1 0 0 1 143.008 47.9336)" fill="#FDDB5F"/>
<mask id="mask4_1721_63262" style="mask-type:alpha" maskUnits="userSpaceOnUse" x="16" y="47" width="128" height="128">
<circle cx="63.3443" cy="63.3443" r="63.3443" transform="matrix(-1 0 0 1 143.242 47.9336)" fill="#FDDB5F"/>
</mask>
<g mask="url(#mask4_1721_63262)">
<path d="M25.9706 145.187C25.9706 180.171 45.3826 181.216 80.3667 181.216C115.351 181.216 143.711 152.855 143.711 117.871C143.711 106.09 140.179 86.7878 140.179 86.7878C147.95 152.251 73.0668 193.461 25.9706 145.187Z" fill="#DBAB3B"/>
</g>
<circle cx="13.6579" cy="13.6579" r="12.6188" transform="matrix(-1 0 0 1 70.0078 79.4878)" fill="white" stroke="black" stroke-width="2.07812"/>
<mask id="mask5_1721_63262" style="mask-type:alpha" maskUnits="userSpaceOnUse" x="42" y="79" width="29" height="28">
<circle cx="13.6579" cy="13.6579" r="12.6188" transform="matrix(-1 0 0 1 70.0078 79.4878)" fill="white" stroke="black" stroke-width="2.07812"/>
</mask>
<g mask="url(#mask5_1721_63262)">
<circle cx="13.6579" cy="13.6579" r="12.6188" transform="matrix(-1 0 0 1 78.9609 79.4878)" fill="#1D1D1B" stroke="black" stroke-width="2.07812"/>
</g>
<circle cx="102.517" cy="93.1457" r="12.6188" fill="white" stroke="black" stroke-width="2.07812"/>
<mask id="mask6_1721_63262" style="mask-type:alpha" maskUnits="userSpaceOnUse" x="88" y="79" width="29" height="28">
<circle cx="102.517" cy="93.1457" r="12.6188" fill="white" stroke="black" stroke-width="2.07812"/>
</mask>
<g mask="url(#mask6_1721_63262)">
<circle cx="93.5641" cy="93.1457" r="12.6188" fill="#1D1D1B" stroke="black" stroke-width="2.07812"/>
</g>
<path d="M67.6685 119.419C67.6685 124.361 73.0453 128.367 79.678 128.367C86.3107 128.367 91.6875 124.361 91.6875 119.419C91.6875 110.471 83.6812 117.934 79.678 117.934C75.6748 117.934 67.6685 110 67.6685 119.419Z" fill="#1D1D1B"/>
<mask id="mask7_1721_63262" style="mask-type:alpha" maskUnits="userSpaceOnUse" x="67" y="114" width="25" height="15">
<path d="M67.6685 119.419C67.6685 124.361 73.0453 128.367 79.678 128.367C86.3107 128.367 91.6875 124.361 91.6875 119.419C91.6875 110.471 83.6812 117.934 79.678 117.934C75.6748 117.934 67.6685 110 67.6685 119.419Z" fill="#D9D9D9"/>
</mask>
<g mask="url(#mask7_1721_63262)">
<ellipse cx="10.5966" cy="6.59346" rx="10.5966" ry="6.59346" transform="matrix(-1 0 0 1 90.5078 121.741)" fill="#C95663"/>
</g>
<path d="M67.6685 119.419C67.6685 124.361 73.0453 128.367 79.678 128.367C86.3107 128.367 91.6875 124.361 91.6875 119.419C91.6875 110.471 83.6812 117.934 79.678 117.934C75.6748 117.934 67.6685 110 67.6685 119.419Z" stroke="#1D1D1B" stroke-width="2.07812"/>
<mask id="mask8_1721_63262" style="mask-type:alpha" maskUnits="userSpaceOnUse" x="16" y="48" width="128" height="128">
<circle cx="63.3443" cy="63.3443" r="63.3443" transform="matrix(-1 0 0 1 143.016 48.4045)" fill="#FDDB5F"/>
</mask>
<g mask="url(#mask8_1721_63262)">
<path d="M142.438 122.816C116.889 142.435 42.9163 142.435 16.3934 122.816L14.2034 142.435C41.4563 156.646 112.752 158.76 145.602 142.435L142.438 122.816Z" fill="#1D1D1B"/>
<path d="M127.534 153.429C101.371 167.755 55.463 166.346 31.5216 153.429L13.257 169.284C40.9007 183.49 113.219 185.604 146.539 169.284L127.534 153.429Z" fill="#1D1D1B"/>
</g>
<path d="M75.1953 148.967C75.1953 148.65 75.2781 148.339 75.4354 148.063L78.3227 143.011C79.0223 141.786 80.7876 141.786 81.4872 143.011L84.3744 148.063C84.5318 148.339 84.6145 148.65 84.6145 148.967V162.141C84.6145 162.538 84.4847 162.924 84.2448 163.241L81.3576 167.053C80.6284 168.015 79.1815 168.015 78.4523 167.053L75.565 163.241C75.3251 162.924 75.1953 162.538 75.1953 162.141L75.1953 148.967Z" fill="#8C73FF"/>
<mask id="mask9_1721_63262" style="mask-type:alpha" maskUnits="userSpaceOnUse" x="75" y="142" width="10" height="26">
<path d="M75.1953 148.967C75.1953 148.65 75.2781 148.339 75.4354 148.063L78.3227 143.011C79.0223 141.786 80.7876 141.786 81.4872 143.011L84.3744 148.063C84.5318 148.339 84.6145 148.65 84.6145 148.967V162.141C84.6145 162.538 84.4847 162.924 84.2448 163.241L81.3576 167.053C80.6284 168.015 79.1815 168.015 78.4523 167.053L75.565 163.241C75.3251 162.924 75.1953 162.538 75.1953 162.141L75.1953 148.967Z" fill="#B6A7FC"/>
</mask>
<g mask="url(#mask9_1721_63262)">
<path d="M78.5927 148.857C79.3073 149.587 80.4815 149.587 81.1961 148.857L85.205 144.766C86.3349 143.612 85.5178 141.668 83.9033 141.668H75.8855C74.271 141.668 73.4539 143.612 74.5838 144.766L78.5927 148.857Z" fill="#8C73FF"/>
</g>
<path d="M78.6005 146.503C79.3151 147.232 80.4894 147.232 81.2039 146.503L85.2128 142.411C86.3427 141.258 85.5257 139.313 83.9111 139.313H75.8933C74.2788 139.313 73.4617 141.258 74.5916 142.411L78.6005 146.503Z" fill="#8C73FF"/>
<path d="M34.1651 77.6451C42.7402 71.2139 60.6695 71.4088 70.2186 77.6451C76.9697 82.0541 72.5571 105.708 70.2186 107.462C63.9825 112.139 43.9186 113.43 39.8167 110.191C28.5006 101.253 28.5233 81.8767 34.1651 77.6451Z" stroke="#1D1D1B" stroke-width="4.12763"/>
<path d="M125.671 77.6451C117.096 71.2139 99.1664 71.4088 89.6174 77.6451C82.8663 82.0541 87.2788 105.708 89.6174 107.462C95.8534 112.139 115.917 113.43 120.019 110.191C131.335 101.253 131.313 81.8767 125.671 77.6451Z" stroke="#1D1D1B" stroke-width="4.12763"/>
<path d="M73.3125 88.5736C77.3678 87.7626 82.2342 87.7626 85.7489 88.5736" stroke="#1D1D1B" stroke-width="4.2946"/>
<ellipse cx="96.6226" cy="87.0235" rx="2.82577" ry="3.29673" fill="white"/>
<ellipse cx="62.7086" cy="87.0235" rx="2.82577" ry="3.29673" fill="white"/>
</svg>
