<svg width="150" height="131" viewBox="0 0 150 131" fill="none" xmlns="http://www.w3.org/2000/svg">
<path d="M16.5062 159.718C14.6701 150.373 17.3489 141.316 22.648 125.112C22.7162 124.903 22.7522 124.681 22.7522 124.462V109.472C22.7522 108.864 22.1281 108.48 21.6413 108.844C10.5813 117.11 -0.791006 170.586 9.86801 172.798C9.86801 176.346 11.9639 177.712 13.5215 177.802C13.8522 177.821 14.1709 177.692 14.4235 177.478C16.2836 175.899 17.0648 173.019 16.8467 168.918C16.8117 168.26 17.5036 167.785 18.112 168.038C20.1098 168.866 21.5341 168.984 22.8868 168.781C23.8045 168.643 24.4518 167.783 24.27 166.873C23.606 163.549 20.7517 162.428 17.6923 161.153C17.0833 160.899 16.6334 160.366 16.5062 159.718Z" fill="#FDDB5F"/>
<mask id="mask0_1427_69349" style="mask-type:alpha" maskUnits="userSpaceOnUse" x="5" y="108" width="20" height="70">
<path d="M16.5062 159.718C14.6701 150.373 17.3489 141.316 22.648 125.112C22.7162 124.903 22.7522 124.681 22.7522 124.462V109.472C22.7522 108.864 22.1281 108.48 21.6413 108.844C10.5813 117.11 -0.791006 170.586 9.86801 172.798C9.86801 176.346 11.9639 177.712 13.5215 177.802C13.8522 177.821 14.1709 177.692 14.4235 177.478C16.2836 175.899 17.0648 173.019 16.8467 168.918C16.8117 168.26 17.5036 167.785 18.112 168.038C20.1098 168.866 21.5341 168.984 22.8868 168.781C23.8045 168.643 24.4518 167.783 24.27 166.873C23.606 163.549 20.7517 162.428 17.6923 161.153C17.0833 160.899 16.6334 160.366 16.5062 159.718Z" fill="#FDDB5F"/>
</mask>
<g mask="url(#mask0_1427_69349)">
<ellipse cx="29.7093" cy="120.014" rx="15.1702" ry="16.4171" fill="#DBAB3B"/>
</g>
<path d="M124.697 159.718C126.533 150.373 123.854 141.316 118.555 125.112C118.487 124.903 118.451 124.681 118.451 124.462V109.472C118.451 108.864 119.075 108.48 119.562 108.844C130.622 117.11 141.994 170.586 131.335 172.798C131.335 176.346 129.239 177.712 127.682 177.802C127.351 177.821 127.032 177.692 126.78 177.478C124.92 175.899 124.138 173.019 124.356 168.918C124.391 168.26 123.7 167.785 123.091 168.038C121.093 168.866 119.669 168.984 118.316 168.781C117.399 168.643 116.751 167.783 116.933 166.873C117.597 163.549 120.451 162.428 123.511 161.153C124.12 160.899 124.57 160.366 124.697 159.718Z" fill="#FDDB5F"/>
<mask id="mask1_1427_69349" style="mask-type:alpha" maskUnits="userSpaceOnUse" x="116" y="108" width="20" height="70">
<path d="M124.697 159.718C126.533 150.373 123.854 141.316 118.555 125.112C118.487 124.903 118.451 124.681 118.451 124.462V109.472C118.451 108.864 119.075 108.48 119.562 108.844C130.622 117.11 141.994 170.586 131.335 172.798C131.335 176.346 129.239 177.712 127.682 177.802C127.351 177.821 127.032 177.692 126.78 177.478C124.92 175.899 124.138 173.019 124.356 168.918C124.391 168.26 123.7 167.785 123.091 168.038C121.093 168.866 119.669 168.984 118.316 168.781C117.399 168.643 116.751 167.783 116.933 166.873C117.597 163.549 120.451 162.428 123.511 161.153C124.12 160.899 124.57 160.366 124.697 159.718Z" fill="#FDDB5F"/>
</mask>
<g mask="url(#mask1_1427_69349)">
<ellipse cx="15.1702" cy="16.4171" rx="15.1702" ry="16.4171" transform="matrix(-1 0 0 1 126.664 103.596)" fill="#DBAB3B"/>
</g>
<path d="M132.039 95.4201L131.173 74.1927C131.13 73.1455 131.874 72.2304 132.908 72.0582L135.735 71.5871C136.634 71.4372 137.526 71.8912 137.935 72.7065L147.854 92.5169C148.421 93.6511 147.85 95.0251 146.645 95.4214L144.923 95.9878C144.3 96.1926 143.641 95.7941 143.533 95.1474L137.999 96.0697C138.107 96.7199 137.616 97.3161 136.957 97.3346L134.173 97.4127C133.037 97.4446 132.085 96.5566 132.039 95.4201Z" fill="#FDDB5F"/>
<mask id="mask2_1427_69349" style="mask-type:alpha" maskUnits="userSpaceOnUse" x="131" y="71" width="18" height="27">
<path d="M132.043 95.4203L131.177 74.1929C131.134 73.1458 131.878 72.2307 132.912 72.0584L135.739 71.5873C136.638 71.4374 137.53 71.8914 137.938 72.7068L147.857 92.5172C148.425 93.6514 147.853 95.0253 146.649 95.4216L144.927 95.988C144.304 96.1928 143.645 95.7944 143.537 95.1477L138.003 96.0699C138.111 96.7202 137.62 97.3163 136.961 97.3348L134.177 97.413C133.04 97.4449 132.089 96.5568 132.043 95.4203Z" fill="#FDDB5F"/>
</mask>
<g mask="url(#mask2_1427_69349)">
<path d="M137.992 98.6091L133.836 75.3342" stroke="#DBAB3B" stroke-width="2.07811" stroke-linecap="round"/>
<path d="M144.23 95.6997L136.334 74.5029" stroke="#DBAB3B" stroke-width="2.07811" stroke-linecap="round"/>
</g>
<path d="M118.684 44.6172L123.278 42.527C128.839 51.4054 131.124 56.889 134.465 67.1178L129.87 69.2079C127.004 59.631 124.764 54.23 118.684 44.6172Z" fill="#FDDB5F"/>
<ellipse cx="133.628" cy="71.0958" rx="4.98748" ry="4.77967" transform="rotate(-28.4663 133.628 71.0958)" fill="#FDDB5F"/>
<mask id="mask3_1427_69349" style="mask-type:alpha" maskUnits="userSpaceOnUse" x="128" y="66" width="11" height="10">
<ellipse cx="133.628" cy="71.096" rx="4.98748" ry="4.77967" transform="rotate(-28.4663 133.628 71.096)" fill="#FDDB5F"/>
</mask>
<g mask="url(#mask3_1427_69349)">
<path d="M137.364 67.853C138.062 68.167 141.56 73.4959 135.909 76.1655C130.928 78.0723 129.24 73.4732 129.24 73.4732C129.24 73.4732 132.563 74.9898 135.286 73.4732C138.009 71.9567 137.364 67.853 137.364 67.853Z" fill="#DBAB3B"/>
</g>
<path d="M4.40568 45.1499C2.70479 44.5681 2.4948 42.2475 4.06364 41.3699L67.3304 5.97928C67.9666 5.62339 68.7428 5.62689 69.3758 5.98851L131.326 41.3807C132.874 42.2649 132.663 44.5592 130.98 45.147L69.0338 66.7846C68.5945 66.938 68.1164 66.9396 67.676 66.789L4.40568 45.1499Z" fill="#1D1D1B"/>
<path d="M25.9766 47.8007C44.8874 29.5133 91.645 28.6821 111.803 47.8007L103.698 60.4773H33.4578L25.9766 47.8007Z" fill="black"/>
<rect x="101.324" y="37.3818" width="3.74061" height="20.3655" transform="rotate(30 101.324 37.3818)" fill="#1D1D1B"/>
<circle cx="104.507" cy="35.6175" r="5.61091" transform="rotate(30 104.507 35.6175)" fill="#FDDB5F"/>
<rect width="3.74061" height="20.3655" transform="matrix(-0.866025 0.5 0.5 0.866025 38.9023 37.3818)" fill="#1D1D1B"/>
<circle cx="5.61091" cy="5.61091" r="5.61091" transform="matrix(-0.866025 0.5 0.5 0.866025 37.7734 27.9529)" fill="#FDDB5F"/>
<ellipse cx="56.1091" cy="55.9013" rx="56.1091" ry="55.9013" transform="matrix(-1 0 0 1 126.145 43.3311)" fill="#FDDB5F"/>
<mask id="mask4_1427_69349" style="mask-type:alpha" maskUnits="userSpaceOnUse" x="14" y="43" width="113" height="113">
<circle cx="55.9013" cy="55.9013" r="55.9013" transform="matrix(-1 0 0 1 126.348 43.3311)" fill="#FDDB5F"/>
</mask>
<g mask="url(#mask4_1427_69349)">
<path d="M22.856 129.157C22.856 160.031 39.987 160.952 70.8604 160.952C101.734 160.952 126.762 135.924 126.762 105.051C126.762 94.6537 123.645 77.6199 123.645 77.6199C130.502 135.391 64.4183 171.758 22.856 129.157Z" fill="#DBAB3B"/>
</g>
<circle cx="12.0531" cy="12.0531" r="11.014" transform="matrix(-1 0 0 1 61.7188 71.1777)" fill="white" stroke="black" stroke-width="2.07812"/>
<mask id="mask5_1427_69349" style="mask-type:alpha" maskUnits="userSpaceOnUse" x="37" y="71" width="25" height="25">
<circle cx="12.0531" cy="12.0531" r="11.014" transform="matrix(-1 0 0 1 61.7188 71.1777)" fill="white" stroke="black" stroke-width="2.07812"/>
</mask>
<g mask="url(#mask5_1427_69349)">
<circle cx="12.0531" cy="12.0531" r="11.014" transform="matrix(-1 0 0 1 69.6172 71.1777)" fill="#1D1D1B" stroke="black" stroke-width="2.07812"/>
</g>
<circle cx="90.4046" cy="83.2308" r="11.014" fill="white" stroke="black" stroke-width="2.07812"/>
<mask id="mask6_1427_69349" style="mask-type:alpha" maskUnits="userSpaceOnUse" x="78" y="71" width="25" height="25">
<circle cx="90.4046" cy="83.2308" r="11.014" fill="white" stroke="black" stroke-width="2.07812"/>
</mask>
<g mask="url(#mask6_1427_69349)">
<circle cx="82.5062" cy="83.2308" r="11.014" fill="#1D1D1B" stroke="black" stroke-width="2.07812"/>
</g>
<path d="M59.6431 106.417C59.6431 110.778 64.3881 114.314 70.2415 114.314C76.0948 114.314 80.8398 110.778 80.8398 106.417C80.8398 98.5203 73.7743 105.107 70.2415 105.107C66.7087 105.107 59.6431 98.1046 59.6431 106.417Z" fill="#1D1D1B"/>
<mask id="mask7_1427_69349" style="mask-type:alpha" maskUnits="userSpaceOnUse" x="59" y="102" width="22" height="13">
<path d="M59.6431 106.417C59.6431 110.778 64.3881 114.314 70.2415 114.314C76.0948 114.314 80.8398 110.778 80.8398 106.417C80.8398 98.5203 73.7743 105.107 70.2415 105.107C66.7087 105.107 59.6431 98.1046 59.6431 106.417Z" fill="#D9D9D9"/>
</mask>
<g mask="url(#mask7_1427_69349)">
<ellipse cx="9.35152" cy="5.81872" rx="9.35152" ry="5.81872" transform="matrix(-1 0 0 1 79.8008 108.466)" fill="#C95663"/>
</g>
<path d="M59.6431 106.417C59.6431 110.778 64.3881 114.314 70.2415 114.314C76.0948 114.314 80.8398 110.778 80.8398 106.417C80.8398 98.5203 73.7743 105.107 70.2415 105.107C66.7087 105.107 59.6431 98.1046 59.6431 106.417Z" stroke="#1D1D1B" stroke-width="2.07812"/>
<mask id="mask8_1427_69349" style="mask-type:alpha" maskUnits="userSpaceOnUse" x="14" y="43" width="113" height="113">
<circle cx="55.9013" cy="55.9013" r="55.9013" transform="matrix(-1 0 0 1 126.145 43.7466)" fill="#FDDB5F"/>
</mask>
<g mask="url(#mask8_1427_69349)">
<path d="M125.638 109.415C103.091 126.729 37.81 126.729 14.4035 109.415L12.4709 126.729C36.5216 139.27 99.44 141.136 128.43 126.729L125.638 109.415Z" fill="#1D1D1B"/>
</g>
<path d="M66.2969 132.55C66.2969 132.233 66.3796 131.922 66.537 131.646L68.8709 127.562C69.5705 126.338 71.3358 126.338 72.0353 127.562L74.3692 131.646C74.5266 131.922 74.6093 132.233 74.6093 132.55V144.047C74.6093 144.444 74.4795 144.831 74.2396 145.147L71.9057 148.228C71.1765 149.191 69.7297 149.191 69.0005 148.228L66.6666 145.147C66.4267 144.831 66.2969 144.444 66.2969 144.047L66.2969 132.55Z" fill="#B6A7FC"/>
<mask id="mask9_1427_69349" style="mask-type:alpha" maskUnits="userSpaceOnUse" x="66" y="126" width="9" height="23">
<path d="M66.293 132.55C66.293 132.233 66.3757 131.922 66.5331 131.646L68.867 127.562C69.5665 126.338 71.3319 126.338 72.0314 127.562L74.3653 131.646C74.5227 131.922 74.6054 132.233 74.6054 132.55V144.047C74.6054 144.444 74.4756 144.831 74.2357 145.147L71.9018 148.228C71.1726 149.191 69.7258 149.191 68.9966 148.228L66.6627 145.147C66.4228 144.831 66.293 144.444 66.293 144.047L66.293 132.55Z" fill="#B6A7FC"/>
</mask>
<g mask="url(#mask9_1427_69349)">
<path d="M69.1323 132.24C69.8468 132.97 71.0211 132.97 71.7357 132.24L74.764 129.149C75.8939 127.996 75.0768 126.052 73.4622 126.052H67.4057C65.7911 126.052 64.9741 127.996 66.104 129.149L69.1323 132.24Z" fill="#8775DC"/>
</g>
<path d="M69.1479 130.162C69.8625 130.892 71.0367 130.892 71.7513 130.162L74.7796 127.071C75.9095 125.918 75.0924 123.974 73.4779 123.974H67.4213C65.8068 123.974 64.9897 125.918 66.1196 127.071L69.1479 130.162Z" fill="#B6A7FC"/>
<path d="M30.0883 69.5515C37.6558 63.876 53.4784 64.048 61.9055 69.5515C67.8633 73.4424 63.9692 94.3173 61.9055 95.8652C56.4022 99.9928 38.6958 101.132 35.0759 98.2729C25.0894 90.3857 25.1094 73.2859 30.0883 69.5515Z" stroke="#1D1D1B" stroke-width="4.12763"/>
<path d="M110.841 69.5515C103.274 63.876 87.4513 64.048 79.0242 69.5515C73.0664 73.4424 76.9604 94.3173 79.0242 95.8652C84.5275 99.9928 102.234 101.132 105.854 98.2729C115.84 90.3857 115.82 73.2859 110.841 69.5515Z" stroke="#1D1D1B" stroke-width="4.12763"/>
<path d="M64.6367 79.196C68.2155 78.4802 72.5101 78.4802 75.6118 79.196" stroke="#1D1D1B" stroke-width="4.2946"/>
<ellipse cx="85.2047" cy="77.8278" rx="2.49374" ry="2.90936" fill="white"/>
<ellipse cx="55.2789" cy="77.8278" rx="2.49374" ry="2.90936" fill="white"/>
</svg>
