<svg width="217" height="217" viewBox="0 0 217 217" fill="none" xmlns="http://www.w3.org/2000/svg">
<rect width="217" height="217" transform="matrix(-1 0 0 1 217 0)" fill="white"/>
<path d="M97.188 103.428L97.1881 81.6983C97.1881 75.8749 97.421 69.519 97.9201 62.6308C98.4193 55.7425 98.9517 49.2868 99.5839 43.2305C100.216 37.2074 101.015 30.1195 101.98 22.0333L27.8728 22.2329C29.6698 29.7535 31.3003 38.0726 32.6646 47.1571C33.796 54.844 34.8609 63.8953 35.8925 74.3441C36.924 84.793 37.4565 96.1071 37.4565 108.353C37.4565 120.599 36.9573 131.813 35.9923 142.461C35.0273 153.11 33.8959 162.494 32.6646 170.613C31.4001 179.997 29.8694 188.649 28.0725 196.603H100.516C99.95 190.48 99.4176 184.224 98.8519 177.835C98.4193 172.444 98.0532 166.554 97.6872 160.131C97.3544 153.742 97.1548 147.619 97.1548 141.796V113.245C97.1548 373.913 97.188 -131.291 97.188 103.428Z" fill="#FF9B3E"/>
<path d="M118.792 103.428L118.792 81.6983C118.792 75.8749 118.559 69.519 118.06 62.6308C117.561 55.7425 117.028 49.2868 116.396 43.2305C115.764 37.2074 114.965 30.1195 114 22.0333L188.107 22.2329C186.31 29.7535 184.68 38.0726 183.315 47.1571C182.184 54.844 181.119 63.8953 180.087 74.3441C179.056 84.793 178.523 96.1071 178.523 108.353C178.523 120.599 179.023 131.813 179.988 142.461C180.953 153.11 182.084 162.494 183.315 170.613C184.58 179.997 186.11 188.649 187.907 196.603H115.464C116.03 190.48 116.562 184.224 117.128 177.835C117.561 172.444 117.927 166.554 118.293 160.131C118.625 153.742 118.825 147.619 118.825 141.796V113.245C118.825 373.913 118.792 -131.291 118.792 103.428Z" fill="#B6A7FC"/>
<path d="M141.409 119.515V146H82.2702L111.638 90.8847L112.644 89.0073C113.449 87.5321 113.851 86.0794 113.851 84.649C113.851 81.0283 111.728 79.2179 107.481 79.2179C105.827 79.2179 104.374 79.8437 103.123 81.0953C101.916 82.3022 101.312 83.7326 101.312 85.3865C101.312 87.2639 102.117 88.9626 103.726 90.4824L91.9925 111.402C87.0755 108.362 83.2983 104.496 80.661 99.8023C78.0237 95.1088 76.705 89.9236 76.705 84.2467C76.705 75.4407 79.8117 67.9088 86.025 61.6507C92.2383 55.348 99.748 52.1966 108.554 52.1966C117.405 52.1966 124.914 55.3033 131.083 61.5166C137.296 67.73 140.403 75.2843 140.403 84.1796C140.403 89.2755 139.263 94.0137 136.983 98.3943L126.121 119.515H141.409Z" fill="#1D1D1B"/>
</svg>
